<?xml version="1.0" standalone="no"?>
<!DOCTYPE svg PUBLIC "-//W3C//DTD SVG 20010904//EN"
 "http://www.w3.org/TR/2001/REC-SVG-20010904/DTD/svg10.dtd">
<svg version="1.0" xmlns="http://www.w3.org/2000/svg"
 width="892.000000pt" height="892.000000pt" viewBox="0 0 892.000000 892.000000"
 preserveAspectRatio="xMidYMid meet">
<metadata>
Created by potrace 1.14, written by Peter Selinger 2001-2017
</metadata>
<g transform="translate(0.000000,892.000000) scale(0.100000,-0.100000)"
fill="#000000" stroke="none">
<path d="M2525 8645 c-160 -30 -318 -100 -438 -194 -69 -55 -184 -174 -200
-208 -6 -13 -14 -23 -19 -23 -4 0 -8 -7 -8 -15 0 -8 -4 -15 -10 -15 -5 0 -10
-9 -10 -20 0 -11 -4 -20 -9 -20 -9 0 -37 -60 -33 -72 1 -5 -2 -8 -7 -8 -5 0
-12 -12 -17 -27 -9 -33 -9 -32 -18 -58 -40 -105 -51 -182 -50 -345 0 -63 3
-128 7 -145 56 -268 194 -489 396 -636 78 -56 205 -122 244 -128 4 0 21 -8 37
-16 16 -8 32 -15 35 -14 3 0 18 -2 33 -5 60 -14 79 -17 117 -22 22 -4 546 -7
1165 -9 1043 -2 1173 -4 1270 -21 19 -3 46 -8 60 -10 81 -14 145 -29 220 -51
47 -14 93 -26 103 -26 9 -1 17 -5 17 -9 0 -4 6 -8 13 -8 32 0 277 -113 387
-179 72 -43 240 -160 265 -184 7 -7 31 -28 55 -47 67 -55 223 -217 270 -280
14 -18 34 -45 45 -59 63 -79 135 -194 202 -321 42 -79 130 -293 137 -332 3
-13 5 -23 6 -23 1 0 3 -7 5 -15 2 -8 11 -42 21 -75 19 -69 23 -90 29 -127 2
-15 6 -35 9 -45 5 -18 14 -83 23 -173 15 -140 3 -446 -21 -570 -4 -19 -9 -46
-11 -60 -6 -39 -21 -101 -35 -150 -8 -25 -14 -47 -15 -50 -54 -205 -234 -560
-346 -686 -11 -11 -19 -25 -19 -30 0 -5 -8 -17 -17 -25 -10 -9 -40 -43 -68
-75 -120 -140 -280 -280 -443 -388 -105 -70 -322 -186 -347 -186 -8 0 -15 -4
-15 -8 0 -5 -6 -9 -12 -10 -7 0 -44 -13 -83 -27 -73 -28 -195 -66 -230 -70
-11 -2 -20 -4 -20 -5 0 -2 -16 -5 -60 -14 -16 -3 -39 -8 -50 -10 -58 -11 -114
-19 -151 -21 -22 -1 -44 -3 -50 -6 -5 -2 -55 -4 -111 -4 -57 0 -103 -4 -103
-8 0 -5 -6 -5 -12 0 -17 10 -128 10 -128 0 0 -5 -5 -5 -12 -1 -15 9 -161 9
-177 0 -6 -4 -11 -3 -11 1 0 5 -27 8 -60 8 -33 0 -60 -4 -60 -8 0 -5 -5 -5
-12 -1 -15 9 -58 10 -82 1 -11 -4 -15 -3 -10 4 4 8 0 7 -15 0 -11 -7 -21 -8
-21 -4 0 4 -40 8 -90 8 -49 0 -90 -4 -90 -8 0 -5 -5 -5 -12 -1 -17 11 -228 10
-228 -1 0 -5 -5 -4 -11 2 -7 7 -21 8 -40 3 -16 -5 -29 -6 -29 -2 0 4 -36 7
-80 7 -44 0 -80 -4 -80 -10 0 -5 -5 -4 -11 2 -7 7 -21 8 -40 3 -16 -5 -29 -6
-29 -2 0 9 -164 7 -178 -2 -6 -3 -13 -3 -15 1 -6 10 -130 9 -145 -1 -6 -3 -13
-3 -15 1 -6 9 -270 8 -374 -1 -69 -6 -205 -36 -248 -54 -215 -91 -343 -189
-465 -352 -83 -111 -160 -292 -177 -417 -9 -68 -10 -261 -1 -318 19 -124 85
-298 147 -390 80 -118 216 -255 284 -286 15 -7 27 -16 27 -21 0 -4 6 -8 14 -8
8 0 16 -3 18 -8 4 -10 163 -82 181 -82 7 0 17 -3 21 -8 4 -4 11 -7 14 -7 4 -1
25 -5 47 -10 22 -4 47 -10 55 -11 64 -14 244 -16 1210 -16 1008 1 1210 3 1343
17 111 12 134 14 177 20 25 4 56 8 70 10 45 6 104 15 130 21 14 3 36 8 50 10
66 12 137 27 160 35 14 5 36 11 50 13 68 13 357 100 415 125 11 5 74 30 140
56 148 59 391 177 504 244 46 28 86 51 87 51 8 0 119 74 122 82 2 4 8 8 13 8
12 0 213 140 217 152 2 4 8 8 13 8 5 0 20 9 32 20 12 11 69 59 127 107 129
107 166 141 290 268 133 135 227 241 313 350 61 77 147 197 147 205 0 6 3 10
8 10 4 0 30 37 57 81 28 44 64 102 82 129 17 27 34 59 38 70 3 11 11 20 16 20
5 0 9 6 9 14 0 8 7 22 16 30 8 9 13 16 10 16 -3 0 10 26 27 58 32 57 58 108
114 232 58 127 74 165 74 175 0 6 6 19 13 30 14 22 119 332 119 353 0 6 3 12
6 12 3 0 7 10 8 23 3 26 7 46 16 67 4 8 9 29 12 45 4 17 8 39 10 50 3 11 11
47 19 79 8 33 13 63 10 68 -3 4 -1 8 3 8 5 0 9 8 9 18 0 9 8 60 17 112 18 105
27 171 33 239 2 25 7 82 11 126 4 44 7 195 7 335 -1 227 -5 323 -19 440 -2 19
-5 50 -6 68 -2 17 -7 32 -11 32 -4 0 -5 6 -2 14 4 11 -12 125 -31 224 -3 12
-7 33 -10 47 -3 14 -7 35 -9 48 -5 29 -54 223 -66 262 -5 17 -19 62 -30 100
-12 39 -25 79 -29 90 -5 11 -14 33 -20 48 -6 15 -11 37 -11 47 0 11 -3 20 -8
20 -6 0 -26 48 -36 91 -3 9 -16 39 -30 68 -15 28 -24 51 -22 51 3 0 -15 42
-40 93 -25 50 -55 112 -67 137 -12 25 -25 47 -29 48 -5 2 -8 12 -8 23 0 10 -4
19 -9 19 -5 0 -11 8 -14 18 -3 9 -21 42 -39 74 -85 144 -102 173 -107 178 -9
8 -71 100 -71 106 0 5 -139 194 -150 204 -3 3 -18 23 -35 45 -16 22 -39 50
-50 62 -11 12 -40 45 -65 75 -53 62 -177 193 -240 253 -120 114 -227 210 -280
250 -15 11 -35 28 -44 38 -10 9 -20 17 -24 17 -4 0 -25 16 -47 35 -22 20 -48
38 -57 41 -10 3 -18 10 -18 15 0 5 -6 9 -14 9 -8 0 -16 4 -18 9 -2 7 -158 112
-233 158 -161 98 -342 192 -507 263 -51 22 -101 45 -110 50 -10 6 -22 10 -27
10 -5 0 -25 7 -45 15 -20 8 -39 16 -43 16 -5 1 -30 10 -58 21 -27 11 -58 21
-68 23 -9 2 -22 7 -28 11 -6 4 -25 10 -43 14 -17 5 -78 22 -136 38 -96 27
-139 38 -180 47 -8 2 -37 9 -65 15 -27 6 -63 13 -80 16 -16 2 -41 6 -55 9 -40
8 -66 12 -200 31 -25 3 -65 8 -90 10 -25 3 -65 7 -90 11 -25 3 -587 7 -1250 9
-968 2 -1219 0 -1275 -11z"/>
<path d="M917 6824 c-1 -1 -25 -5 -52 -9 -172 -20 -377 -116 -520 -244 -28
-26 -84 -86 -131 -143 -34 -41 -141 -239 -144 -266 0 -4 -5 -25 -11 -47 -6
-22 -13 -48 -15 -58 -2 -10 -6 -28 -10 -40 -4 -12 -8 -41 -9 -64 -1 -24 -4
-45 -6 -47 -9 -9 1 -173 15 -261 7 -44 42 -159 56 -184 6 -12 13 -32 15 -43 3
-11 10 -28 17 -37 7 -9 22 -33 32 -53 10 -20 27 -46 37 -57 11 -11 19 -25 19
-32 0 -6 169 -180 375 -386 314 -313 374 -377 364 -390 -7 -8 -164 -166 -348
-351 -331 -333 -363 -366 -409 -431 -32 -44 -107 -190 -117 -226 -4 -16 -9
-34 -11 -40 -56 -189 -61 -324 -20 -530 14 -72 109 -294 135 -315 3 -3 19 -24
35 -48 43 -64 159 -175 234 -225 57 -39 146 -89 162 -92 3 -1 22 -9 44 -18 21
-9 47 -17 57 -17 10 0 20 -4 23 -9 3 -4 22 -11 43 -14 21 -3 49 -8 63 -11 22
-5 157 -18 185 -17 50 0 193 18 205 26 3 2 21 7 39 10 36 6 161 54 175 66 6 5
16 9 23 9 15 0 110 59 167 104 69 54 1479 1468 1530 1535 90 117 168 296 192
441 8 46 9 275 2 320 -10 59 -32 146 -40 157 -5 6 -11 23 -14 38 -10 57 -108
224 -174 298 -27 30 -1423 1425 -1475 1474 -7 7 -15 9 -19 6 -3 -4 -6 -1 -6 5
0 18 -166 122 -195 122 -8 0 -15 5 -15 10 0 6 -7 10 -15 10 -8 0 -23 4 -33 10
-13 7 -114 39 -142 45 -78 16 -302 29 -313 19z"/>
</g>
</svg>
