<svg width="630" height="450" viewBox="0 0 630 450" fill="none" xmlns="http://www.w3.org/2000/svg">
<g clip-path="url(#clip0_1041_346)">
<path fill-rule="evenodd" clip-rule="evenodd" d="M629.88 99.5575C629.951 100.354 629.736 101.15 628.948 102.08C628.017 103.142 626.44 104.336 623.789 105.664C612.108 109.912 600.355 112.168 588.818 113.097C584.9 113.451 581.007 113.673 577.137 113.761C576.349 114.159 575.847 114.69 575.847 115.221C575.919 116.947 576.134 120.664 576.206 122.389C580.935 121.593 590.251 119.602 594.981 118.673C590.251 119.602 585.593 120.531 585.665 122.389C585.808 124.115 586.023 127.699 586.095 129.558C583.802 130.487 581.15 131.15 578.355 131.681C575.561 132.08 572.551 132.212 569.613 132.478C563.737 133.009 557.789 133.407 553.131 135L553.346 140.443C558.147 140.575 564.023 139.646 569.899 138.584C572.838 138.053 575.847 137.389 578.642 136.726C581.437 136.062 584.017 135.398 586.381 134.867C581.795 137.655 581.867 139.513 582.082 143.097C578.57 144.292 574.987 144.823 571.404 145.221C567.893 145.62 564.31 145.752 560.727 146.15C553.632 146.681 546.538 148.009 539.515 151.327L546.61 150.531L553.704 149.469C552.629 150.664 551.339 151.726 549.906 152.655C557.693 152.478 565.48 152.345 573.267 152.257C591.326 153.186 577.854 161.15 564.453 167.257C568.896 165.133 568.968 170.575 573.482 168.584C573.482 174.027 564.596 183.451 546.681 186.106C549.691 186.018 552.725 185.885 555.782 185.708C566.603 183.584 578.355 179.867 590.179 176.283C590.323 178.009 591.684 179.469 591.828 181.062C591.899 181.858 591.684 182.655 590.824 183.584C589.965 184.513 588.46 185.443 586.023 186.637C577.472 189.381 568.896 191.814 560.297 193.938C560.297 194.115 560.297 194.292 560.297 194.469C559.294 194.558 558.338 194.646 557.43 194.735C555.472 195.177 553.513 195.62 551.554 196.062C551.411 196.327 551.339 196.549 551.339 196.726C551.339 198.584 551.411 202.168 551.411 204.027C555.925 203.761 564.883 203.363 569.326 203.097C564.883 203.363 560.368 203.628 560.44 205.354C560.44 207.212 560.512 210.797 560.512 212.655C551.554 214.912 538.154 211.858 529.196 214.115L529.268 219.558C538.297 220.885 551.626 218.496 560.583 218.097C556.14 220.089 556.14 221.814 556.212 225.531C549.548 226.726 542.811 226.195 536.075 226.062C532.779 225.929 529.411 225.929 526.043 226.46C524.371 226.637 522.699 226.947 521.027 227.389C519.354 227.92 517.706 228.584 516.082 229.381C520.525 228.982 524.968 228.85 529.411 228.584C528.121 230.044 526.473 231.106 524.61 231.903C543.17 229.912 561.3 225.664 578.57 217.832C572.981 235.221 567.463 252.345 562.017 269.469L562.805 268.938L563.45 268.407C563.832 268.142 564.238 267.876 564.668 267.611C565.48 266.903 566.269 266.15 567.033 265.354L567.176 265.221H567.32L567.535 264.956L567.965 264.558C568.06 264.469 568.18 264.336 568.323 264.159H568.394C568.442 264.159 568.466 264.159 568.466 264.159C568.514 264.071 568.562 263.982 568.61 263.894C568.562 263.982 568.538 264.027 568.538 264.027C568.586 263.938 568.633 263.894 568.681 263.894C568.681 263.894 568.705 263.85 568.753 263.761C568.753 263.761 568.777 263.761 568.824 263.761C568.872 263.673 568.92 263.584 568.968 263.496C569.159 263.319 569.35 263.097 569.541 262.832C569.541 262.832 569.565 262.832 569.613 262.832L569.971 262.434V262.301C569.971 262.301 569.995 262.301 570.043 262.301L570.114 262.168C570.305 261.991 570.497 261.77 570.688 261.504C570.64 261.504 570.616 261.549 570.616 261.637C570.664 261.549 570.712 261.504 570.759 261.504C570.759 261.416 570.783 261.372 570.831 261.372C570.974 261.195 571.094 260.974 571.189 260.708H571.261H571.333C571.285 260.708 571.261 260.708 571.261 260.708C571.309 260.708 571.333 260.708 571.333 260.708V260.575L571.404 260.443H571.476V260.31H571.548V260.177C571.595 260.177 571.619 260.177 571.619 260.177C571.715 260 571.786 259.867 571.834 259.779C571.978 259.513 572.097 259.292 572.193 259.115C572.623 258.186 573.196 257.522 574.056 258.053C574.772 258.584 575.632 260.177 576.492 262.566C575.417 263.23 574.772 263.894 574.916 264.558C575.059 266.283 575.489 269.867 575.704 271.593L578.212 270.664L580.649 269.469L585.593 267.212L589.105 265.62L588.173 259.115C587.671 255.797 587.17 252.478 586.31 249.159C585.88 247.301 585.307 245.443 584.733 243.717C584.829 243.982 584.924 244.292 585.02 244.646C585.211 245.177 585.402 245.752 585.593 246.372C585.951 247.566 586.238 248.628 586.525 249.69C586.668 250.221 586.811 250.752 586.955 251.283C587.05 251.814 587.146 252.301 587.241 252.743C587.671 254.602 588.03 256.062 588.316 257.124C588.603 258.186 588.89 258.717 589.105 258.584C590.036 258.186 591.971 257.257 592.903 256.858C592.903 256.947 592.903 256.991 592.903 256.991L595.482 270.531L586.811 275.974C584.375 277.566 581.508 279.027 578.499 280.221C577.018 280.841 575.489 281.416 573.912 281.947C573.1 282.212 572.288 282.478 571.476 282.743C570.712 282.92 569.923 283.142 569.111 283.407C567.487 283.85 565.886 284.292 564.31 284.735C562.733 285.089 561.181 285.487 559.652 285.929C556.642 286.726 553.776 287.522 551.268 288.717L551.626 294.027C554.206 293.894 557.144 293.363 560.225 292.566C561.802 292.035 563.307 291.637 564.955 291.106C566.531 290.575 568.132 290 569.756 289.381C570.52 289.027 571.309 288.717 572.121 288.451C572.933 288.097 573.721 287.743 574.486 287.389C576.062 286.681 577.615 285.974 579.144 285.266C582.153 283.805 585.02 282.345 587.6 281.151H587.671L587.6 281.283C582.798 285.266 583.013 286.991 583.443 290.575C575.776 294.956 567.821 296.947 559.938 298.673C554.134 300 548.401 301.328 542.74 303.451C542.835 303.982 542.931 304.513 543.026 305.044C543.456 304.956 543.91 304.867 544.388 304.779C547.039 304.248 549.619 303.717 552.271 303.053C550.049 305.708 546.896 307.566 543.17 308.894C543.17 309.159 543.17 309.381 543.17 309.558C543.241 313.142 529.339 310.089 533.997 313.54C530.557 313.673 526.473 313.938 522.603 314.336C518.733 314.735 514.935 315.133 512.069 315.929C506.336 317.389 504.114 318.85 510.994 320.177C512.212 320.974 514.219 321.106 516.655 321.372C519.092 321.505 521.958 321.372 524.896 321.372C530.629 321.372 536.362 321.637 538.727 324.159C543.313 329.469 534.212 335.31 538.798 340.487C539.945 340.487 541.378 340.354 542.955 340.354C544.531 340.221 546.251 340.089 547.971 340.221C551.411 340.221 554.779 340.221 557.072 340.221C561.587 343.938 552.557 351.106 557.072 351.106C560.44 352.035 564.166 352.699 568.036 352.965C569.995 353.142 571.978 353.274 573.984 353.363C575.059 353.496 576.062 353.496 577.066 353.496C578.117 353.584 579.168 353.673 580.219 353.761C588.675 354.425 597.704 354.558 606.733 355.089C606.733 356.947 607.808 358.805 607.736 360.398C607.736 361.195 607.45 361.859 606.518 362.522C605.658 363.053 604.297 363.584 602.004 363.85C575.274 361.991 548.329 362.655 521.241 364.912C520.62 365.797 519.928 366.681 519.163 367.566C518.638 368.186 518.088 368.805 517.515 369.425C516.942 369.956 516.321 370.531 515.652 371.151C514.314 372.301 512.833 373.407 511.209 374.469C509.585 375.62 507.817 376.682 505.906 377.655C503.971 378.717 501.893 379.779 499.6 380.443C501.893 380.044 504.114 379.248 506.408 378.584C508.653 377.876 510.898 377.168 513.144 376.46C517.802 376.859 513.645 381.77 513.932 385.354C509.417 386.814 504.831 388.142 504.974 390C505.189 391.726 505.476 395.31 505.619 397.168C507.913 396.372 511.352 395.31 514.792 394.248C516.512 393.717 518.232 393.186 519.808 392.788C521.385 392.124 522.818 391.593 523.965 391.195C521.671 392.124 519.378 392.92 517.73 393.584C516.01 394.381 514.864 395.177 514.935 396.106C515.15 397.832 515.437 401.416 515.652 403.142C513.359 404.336 510.707 405.266 507.984 406.062C506.599 406.416 505.166 406.77 503.685 407.124C502.251 407.389 500.794 407.655 499.313 407.92C496.375 408.319 493.437 408.85 490.714 409.381C489.328 409.735 487.967 410.089 486.629 410.443C485.339 410.708 484.121 411.062 482.974 411.505L483.261 416.947C484.455 416.947 485.721 416.903 487.059 416.814C488.349 416.637 489.711 416.372 491.144 416.018C493.939 415.487 496.877 414.69 499.743 413.894C501.224 413.54 502.705 413.142 504.186 412.699C505.619 412.168 507.029 411.637 508.414 411.106C511.137 410.177 513.789 409.248 516.154 408.584C511.639 411.77 511.782 413.496 512.069 417.08C505.046 420.398 497.88 420.929 490.786 422.257C487.202 422.92 483.619 423.319 480.108 424.248C476.525 425.044 473.014 426.372 469.502 428.363C474.28 427.566 479.033 426.726 483.763 425.841C479.248 431.151 470.935 433.407 461.978 433.673C453.02 434.469 443.489 433.54 436.395 435C430.59 435.929 424.571 436.46 418.408 436.991C412.245 437.39 406.01 437.522 399.704 437.389C393.398 437.257 387.02 436.991 380.571 436.593C377.37 436.328 374.169 436.062 370.968 435.797C367.719 435.531 364.495 435.221 361.294 434.867C335.639 432.345 310.128 428.894 287.125 429.69C280.245 429.956 273.294 430.354 266.271 430.62C262.76 430.62 259.392 430.885 255.952 431.018C252.512 431.151 249.073 431.151 245.633 431.549C242.193 431.726 238.729 431.947 235.242 432.213C231.802 432.566 228.339 432.92 224.851 433.274C221.411 433.54 217.9 434.071 214.389 434.469C210.877 434.867 207.366 435.266 203.854 435.797C175.835 439.646 147.385 445.221 119.653 450.266C119.509 446.682 123.809 440.443 119.079 439.513C109.692 438.451 104.962 436.062 102.454 433.142C99.9458 430.221 99.8025 426.505 99.5875 422.92C99.4442 420.531 105.607 420.266 108.33 419.602C108.521 419.159 108.832 418.673 109.262 418.142C109.118 418.053 108.903 417.92 108.617 417.743C109.095 417.655 109.548 417.566 109.978 417.478C113.131 414.823 119.868 411.637 126.532 408.85C124.167 409.779 123.021 408.85 121.874 408.053C114.851 408.982 106.539 410.708 103.457 407.788C98.5842 403.142 107.47 396.106 102.669 391.593C98.0109 392.389 88.8383 393.982 84.252 394.646C79.5224 391.858 88.3367 383.097 83.7504 383.894C69.9198 382.434 51.7895 386.814 33.7309 388.142C33.6593 386.283 32.5127 384.558 32.441 382.965C32.441 382.168 32.7277 381.504 33.5876 380.708C34.3759 380.044 35.8091 379.381 38.0306 378.717C69.7765 375.398 101.952 368.23 134.773 361.46C116.571 362.92 98.3692 363.451 80.0957 362.655L72.5712 362.257L68.7732 362.124L64.9752 361.726C59.9111 361.195 54.8709 360.664 49.8547 360.133C44.8384 359.336 39.7982 358.54 34.7342 357.743L31.0078 357.08L27.2098 356.283L19.757 354.69C1.48341 349.381 15.8156 344.867 29.5746 341.947C24.9883 342.876 25.2749 337.566 20.6169 338.496C20.7603 335.708 23.2684 332.655 27.9264 330.266C29.0729 329.735 30.3628 329.204 31.7961 328.673C33.2293 328.274 34.8058 327.743 36.5257 327.345C39.8938 326.682 43.8351 326.283 48.3498 326.416C43.859 325.797 39.3921 325.221 34.9492 324.69C30.5778 322.301 35.1641 319.248 35.3075 315.664C39.7504 316.195 44.1934 316.858 44.2651 315C44.3368 313.274 44.4801 309.558 44.5517 307.832C42.3302 307.566 39.0338 307.035 35.7374 306.637C34.9253 306.549 34.1131 306.416 33.3009 306.239C32.4888 306.151 31.7005 306.018 30.9361 305.841C29.7179 305.575 28.5713 305.443 27.5681 305.177C29.5746 305.575 31.5094 305.974 33.0143 305.974C34.6625 306.106 35.7374 305.708 35.8091 304.779C35.8807 303.053 36.0241 299.469 36.0957 297.611C40.5387 297.345 45.985 298.407 51.4312 299.602C56.8775 300.531 62.3237 301.46 66.7667 300.929L66.8383 295.487C62.467 294.292 57.0208 293.761 51.5745 293.496C46.1999 293.097 40.682 292.832 36.3824 292.168C40.8254 290.974 40.897 289.248 41.0403 285.531C44.2651 285.531 47.4898 285.929 50.7146 286.593C54.011 287.124 57.2358 287.655 60.4605 288.186C63.6853 288.717 66.9817 289.115 70.2064 288.982C73.5028 288.85 76.7276 288.319 80.024 286.991L73.5028 286.858L70.2781 286.726L66.9817 286.46C68.1282 285.398 69.4182 284.735 70.8514 284.071C72.3563 283.407 73.9328 283.009 75.6527 282.743C79.0924 282.212 83.0338 282.345 87.0468 282.743C91.1315 283.009 95.3595 283.274 99.3008 283.673C101.307 283.673 103.242 283.805 105.105 283.805C106.969 283.673 108.76 283.54 110.408 283.274C115.186 282.389 120.059 281.593 125.027 280.885C126.102 277.832 129.04 274.248 133.985 271.46C131.907 271.858 129.47 272.257 126.962 272.788C123.236 273.584 119.438 274.381 116.929 274.912C111.698 272.389 121.301 263.097 116.285 264.159C112.486 264.027 108.33 264.292 103.959 264.956C99.6591 265.487 95.0728 266.283 90.3432 267.478C80.9556 269.602 70.923 272.389 60.8905 274.779C60.6755 271.195 55.3726 268.805 65.2618 264.69C67.4116 264.159 69.5615 263.584 71.7113 262.965C72.3563 259.513 74.7927 255 71.138 253.938C62.5387 252.212 58.239 249.292 56.0892 245.974C53.9393 242.655 53.8677 239.071 53.8677 235.487C53.796 231.903 66.2651 234.558 62.0371 231.239C68.2716 230.841 76.4409 229.248 81.5289 227.522C86.6168 225.664 88.5517 223.938 82.3172 223.274C80.239 221.814 75.151 222.611 70.0631 223.009C67.4833 223.142 64.9035 223.274 62.7537 223.009C60.5322 222.743 58.7406 222.08 57.7374 220.752C55.6592 218.23 56.5908 215.443 57.5941 212.655C58.5257 209.867 59.4573 207.08 57.4507 204.558C55.4442 204.69 52.4345 204.823 49.4964 204.823C47.9915 204.823 46.4866 204.823 45.1967 204.956C43.8351 204.956 42.5452 204.823 41.6136 204.823C39.6071 202.965 40.682 200.31 41.6853 198.053C42.6169 195.797 43.6201 194.071 41.6853 193.938C35.9524 191.947 29.2879 191.018 22.2651 189.69C15.314 188.363 7.93291 186.637 0.838463 183.451C1.05345 181.726 0.265174 179.469 0.480157 177.876C0.551818 177.212 0.910124 176.549 1.77006 176.283C2.48667 175.885 3.63325 175.752 5.42477 176.018C13.0209 178.938 20.9036 180.664 29.0013 181.327C37.099 182.257 45.4117 182.124 53.796 181.46C62.0371 180.796 70.4214 179.602 78.8774 178.009C79.1641 176.15 80.7406 173.628 80.6689 171.637C85.4702 170.708 90.3432 169.779 90.2715 167.92C90.1999 166.46 90.0566 163.54 89.9132 161.681C88.5756 161.593 87.214 161.549 85.8285 161.549C84.037 161.814 82.1022 162.212 80.1673 162.611C77.0859 163.142 74.0045 163.673 71.7113 164.204C73.6462 163.805 75.581 163.407 77.0859 162.876C78.5191 162.478 79.594 161.947 79.9523 161.283C61.1055 160.487 42.3302 159.558 23.77 158.761C9.00783 156.903 20.0436 149.735 31.1511 144.292C27.4964 146.15 27.4964 140.708 23.77 142.434C23.77 137.124 31.2228 127.965 46.0566 126.372C42.3302 126.372 38.6278 126.327 34.9492 126.239C31.2228 124.513 34.9492 120.796 34.9492 117.212C38.6755 117.212 42.4019 117.345 42.4019 115.487C42.4019 113.628 42.4019 110.044 42.4019 108.319C38.6755 108.186 31.2228 108.186 27.4964 108.186C31.2228 108.186 34.9492 108.186 34.9492 106.46C34.9492 104.602 35.0208 101.018 35.0208 99.1593C42.4736 97.3009 53.6527 101.283 61.1055 99.5575V94.1151C53.6527 92.2567 42.4736 93.7168 35.0208 93.7168C38.7472 91.9912 38.7472 90.1328 38.7472 86.5487C49.998 84.823 61.1771 90.531 72.3563 85.354C68.6299 85.2655 64.9035 85.177 61.1771 85.0885C68.3432 76.5929 85.5419 83.2301 96.7927 82.5664C96.5061 81.6372 96.2194 80.8407 96.2194 80.0443C96.2194 78.4513 97.366 77.1239 102.096 76.3275C107.255 76.1505 112.439 76.062 117.646 76.062C112.2 75.177 106.777 74.2478 101.379 73.2744C81.7439 68.7611 96.8644 63.5841 111.842 60.1328C106.825 61.3274 107.04 55.885 102.096 57.0797C102.311 51.6372 112.486 43.9381 132.122 44.8673C127.249 44.1593 122.352 43.4956 117.431 42.8761C112.63 40.354 117.646 37.4336 117.789 33.8496C122.662 34.5133 127.535 35.177 127.607 33.3186C127.679 31.5929 127.822 27.8761 127.894 26.1505C123.021 25.4867 113.275 24.1593 108.402 23.4956C113.275 24.1593 118.148 24.823 118.219 22.9646C118.291 21.2389 118.434 17.5221 118.506 15.7965C123.379 15.531 129.399 16.8584 135.49 18.0531C141.581 19.1151 147.6 20.177 152.473 19.7788L152.688 14.3363C147.815 13.0089 141.796 12.3451 135.705 11.9469C129.613 11.4159 123.594 11.0177 118.721 10.354C123.666 9.29204 123.666 7.43363 123.809 3.84956C127.464 3.84956 131.118 4.38053 134.701 5.04425C138.356 5.57522 142.011 6.23894 145.594 6.90266C152.832 8.09735 160.141 8.89381 167.451 6.90266C162.625 6.37168 157.8 5.84071 152.975 5.30974C157.92 1.32744 166.376 1.85841 175.477 3.0531C184.578 4.24779 194.18 6.23894 201.49 5.97345C204.499 5.79646 207.557 5.66372 210.662 5.57522C213.768 5.57522 216.897 5.53098 220.05 5.44248C226.356 5.44248 232.805 5.44248 239.255 5.70797C252.297 6.23894 265.698 6.76991 279.099 7.43363C305.9 8.76107 332.844 9.55753 357.281 6.90266C371.9 5.30974 386.877 3.84956 401.926 2.78761C403.837 2.69912 405.748 2.61062 407.659 2.52213C409.713 2.43363 411.767 2.34514 413.821 2.25664C415.876 2.34514 417.906 2.38938 419.913 2.38938C421.991 2.38938 423.997 2.52213 426.004 2.65487C434.102 3.18584 442.128 4.11505 450.01 5.44248C465.776 8.09735 481.183 11.8142 496.088 15.531C511.066 19.2478 525.613 22.9646 539.658 25.4867C539.443 29.2036 534.427 33.5841 539.013 36.3717C541.354 37.4336 543.409 38.4956 545.176 39.5575C546.944 40.531 548.473 41.5044 549.763 42.4779C552.342 44.469 554.062 46.3274 555.137 48.1859C557.43 51.7699 557.287 55.4867 557.144 59.0708C557.072 60.7965 553.489 60.3982 550.479 60C547.469 59.6018 545.105 59.2036 547.398 61.3274C532.994 59.3363 508.701 55.0885 522.961 62.1239C525.255 64.5133 531.346 65.708 537.365 67.1682C543.456 68.4956 549.476 69.823 551.769 72.8761C552.104 73.3186 552.366 73.7168 552.557 74.0708C567.248 72.2124 581.938 70.0885 596.486 67.4336C614.831 65.4425 601.645 75.3982 588.173 83.6283C592.688 80.9735 592.974 86.2832 597.489 83.4956C597.632 86.2832 595.554 90.2655 591.111 94.3806C588.961 96.5044 586.095 98.4956 582.727 100.354C581.007 101.327 579.168 102.212 577.209 103.009C578.212 103.186 579.263 103.319 580.362 103.407C581.747 103.142 583.157 102.876 584.59 102.611C585.737 102.743 586.31 103.142 586.596 103.673C590.084 103.673 593.715 103.451 597.489 103.009C607.235 101.814 617.697 99.0266 628.088 94.9115C628.303 96.6372 629.736 97.9646 629.88 99.5575ZM570.401 264.027C570.544 263.496 570.712 262.965 570.903 262.434C570.712 262.876 570.568 263.319 570.473 263.761C570.425 263.85 570.401 263.894 570.401 263.894C570.401 263.894 570.401 263.938 570.401 264.027ZM570.974 262.168C570.974 262.257 570.95 262.345 570.903 262.434C570.903 262.345 570.927 262.257 570.974 262.168ZM571.046 262.035L571.118 261.903C571.07 261.903 571.046 261.947 571.046 262.035ZM571.118 261.77L571.189 261.637L571.261 261.504C571.213 261.593 571.165 261.681 571.118 261.77ZM571.261 261.504C571.309 261.327 571.356 261.151 571.404 260.974C571.404 260.974 571.38 261.018 571.333 261.106C571.333 261.195 571.309 261.283 571.261 261.372V261.504ZM571.978 259.646C571.93 259.735 571.906 259.779 571.906 259.779C571.954 259.779 571.978 259.735 571.978 259.646ZM571.763 260.044C571.763 260.044 571.763 260 571.763 259.912C571.763 259.912 571.786 259.912 571.834 259.912C571.786 259.912 571.763 259.956 571.763 260.044ZM571.619 260.31V260.177C571.619 260.177 571.643 260.177 571.691 260.177L571.619 260.31ZM569.899 265.62V265.885C569.899 265.797 569.923 265.664 569.971 265.487C569.971 265.575 569.947 265.62 569.899 265.62ZM569.613 266.947C569.517 267.124 569.446 267.301 569.398 267.478L569.613 266.947ZM569.254 268.407C569.302 268.142 569.374 267.876 569.469 267.611L569.326 268.142C569.278 268.23 569.254 268.319 569.254 268.407Z" fill="#231F20"/>
</g>
<defs>
<clipPath id="clip0_1041_346">
<rect width="630" height="450.001" fill="white"/>
</clipPath>
</defs>
</svg>
