<svg width="100" height="100" viewBox="0 0 100 100" fill="none" xmlns="http://www.w3.org/2000/svg">
<g clip-path="url(#clip0_236_8352)">
<path d="M97.236 94.702C95.773 94.702 94.587 95.888 94.587 97.351C94.587 98.814 95.773 100 97.236 100C98.699 100 99.885 98.814 99.885 97.351C99.885 95.888 98.699 94.702 97.236 94.702Z" fill="#F1F7FE"/>
<path d="M83.74 94.702C82.277 94.702 81.091 95.888 81.091 97.351C81.091 98.814 82.277 100 83.74 100C85.203 100 86.389 98.814 86.389 97.351C86.389 95.888 85.203 94.702 83.74 94.702Z" fill="#F1F7FE"/>
<path d="M70.244 94.702C68.781 94.702 67.595 95.888 67.595 97.351C67.595 98.814 68.781 100 70.244 100C71.707 100 72.893 98.814 72.893 97.351C72.893 95.888 71.707 94.702 70.244 94.702Z" fill="#F1F7FE"/>
<path d="M56.748 94.702C55.285 94.702 54.099 95.888 54.099 97.351C54.099 98.814 55.285 100 56.748 100C58.211 100 59.397 98.814 59.397 97.351C59.397 95.888 58.211 94.702 56.748 94.702Z" fill="#F1F7FE"/>
<path d="M43.252 94.702C41.789 94.702 40.603 95.888 40.603 97.351C40.603 98.814 41.789 100 43.252 100C44.715 100 45.901 98.814 45.901 97.351C45.901 95.888 44.715 94.702 43.252 94.702Z" fill="#F1F7FE"/>
<path d="M29.756 94.702C28.293 94.702 27.107 95.888 27.107 97.351C27.107 98.814 28.293 100 29.756 100C31.219 100 32.405 98.814 32.405 97.351C32.405 95.888 31.219 94.702 29.756 94.702Z" fill="#F1F7FE"/>
<path d="M16.26 94.702C14.797 94.702 13.611 95.888 13.611 97.351C13.611 98.814 14.797 100 16.26 100C17.723 100 18.909 98.814 18.909 97.351C18.909 95.888 17.723 94.702 16.26 94.702Z" fill="#F1F7FE"/>
<path d="M2.76399 94.702C1.30099 94.702 0.11499 95.888 0.11499 97.351C0.11499 98.814 1.30099 100 2.76399 100C4.22699 100 5.41299 98.814 5.41299 97.351C5.41299 95.888 4.22699 94.702 2.76399 94.702Z" fill="#F1F7FE"/>
<path d="M97.236 81.1729C95.773 81.1729 94.587 82.3589 94.587 83.8219C94.587 85.285 95.773 86.4709 97.236 86.4709C98.699 86.4709 99.885 85.285 99.885 83.8219C99.885 82.3589 98.699 81.1729 97.236 81.1729Z" fill="#F1F7FE"/>
<path d="M83.74 81.1729C82.277 81.1729 81.091 82.3589 81.091 83.8219C81.091 85.285 82.277 86.4709 83.74 86.4709C85.203 86.4709 86.389 85.285 86.389 83.8219C86.389 82.3589 85.203 81.1729 83.74 81.1729Z" fill="#F1F7FE"/>
<path d="M70.244 81.1729C68.781 81.1729 67.595 82.3589 67.595 83.8219C67.595 85.285 68.781 86.4709 70.244 86.4709C71.707 86.4709 72.893 85.285 72.893 83.8219C72.893 82.3589 71.707 81.1729 70.244 81.1729Z" fill="#F1F7FE"/>
<path d="M56.748 81.1729C55.285 81.1729 54.099 82.3589 54.099 83.8219C54.099 85.285 55.285 86.4709 56.748 86.4709C58.211 86.4709 59.397 85.285 59.397 83.8219C59.397 82.3589 58.211 81.1729 56.748 81.1729Z" fill="#F1F7FE"/>
<path d="M43.252 81.1729C41.789 81.1729 40.603 82.3589 40.603 83.8219C40.603 85.285 41.789 86.4709 43.252 86.4709C44.715 86.4709 45.901 85.285 45.901 83.8219C45.901 82.3589 44.715 81.1729 43.252 81.1729Z" fill="#F1F7FE"/>
<path d="M29.756 81.1729C28.293 81.1729 27.107 82.3589 27.107 83.8219C27.107 85.285 28.293 86.4709 29.756 86.4709C31.219 86.4709 32.405 85.285 32.405 83.8219C32.405 82.3589 31.219 81.1729 29.756 81.1729Z" fill="#F1F7FE"/>
<path d="M16.26 81.1729C14.797 81.1729 13.611 82.3589 13.611 83.8219C13.611 85.285 14.797 86.4709 16.26 86.4709C17.723 86.4709 18.909 85.285 18.909 83.8219C18.909 82.3589 17.723 81.1729 16.26 81.1729Z" fill="#F1F7FE"/>
<path d="M2.76399 81.1729C1.30099 81.1729 0.11499 82.3589 0.11499 83.8219C0.11499 85.285 1.30099 86.4709 2.76399 86.4709C4.22699 86.4709 5.41299 85.285 5.41299 83.8219C5.41299 82.3589 4.22699 81.1729 2.76399 81.1729Z" fill="#F1F7FE"/>
<path d="M97.236 67.644C95.773 67.644 94.587 68.83 94.587 70.293C94.587 71.756 95.773 72.942 97.236 72.942C98.699 72.942 99.885 71.756 99.885 70.293C99.885 68.83 98.699 67.644 97.236 67.644Z" fill="#F1F7FE"/>
<path d="M83.74 67.644C82.277 67.644 81.091 68.83 81.091 70.293C81.091 71.756 82.277 72.942 83.74 72.942C85.203 72.942 86.389 71.756 86.389 70.293C86.389 68.83 85.203 67.644 83.74 67.644Z" fill="#F1F7FE"/>
<path d="M70.244 67.644C68.781 67.644 67.595 68.83 67.595 70.293C67.595 71.756 68.781 72.942 70.244 72.942C71.707 72.942 72.893 71.756 72.893 70.293C72.893 68.83 71.707 67.644 70.244 67.644Z" fill="#F1F7FE"/>
<path d="M56.748 67.644C55.285 67.644 54.099 68.83 54.099 70.293C54.099 71.756 55.285 72.942 56.748 72.942C58.211 72.942 59.397 71.756 59.397 70.293C59.397 68.83 58.211 67.644 56.748 67.644Z" fill="#F1F7FE"/>
<path d="M43.252 67.644C41.789 67.644 40.603 68.83 40.603 70.293C40.603 71.756 41.789 72.942 43.252 72.942C44.715 72.942 45.901 71.756 45.901 70.293C45.901 68.83 44.715 67.644 43.252 67.644Z" fill="#F1F7FE"/>
<path d="M29.756 67.644C28.293 67.644 27.107 68.83 27.107 70.293C27.107 71.756 28.293 72.942 29.756 72.942C31.219 72.942 32.405 71.756 32.405 70.293C32.405 68.83 31.219 67.644 29.756 67.644Z" fill="#F1F7FE"/>
<path d="M16.26 67.644C14.797 67.644 13.611 68.83 13.611 70.293C13.611 71.756 14.797 72.942 16.26 72.942C17.723 72.942 18.909 71.756 18.909 70.293C18.909 68.83 17.723 67.644 16.26 67.644Z" fill="#F1F7FE"/>
<path d="M2.76399 67.644C1.30099 67.644 0.11499 68.83 0.11499 70.293C0.11499 71.756 1.30099 72.942 2.76399 72.942C4.22699 72.942 5.41299 71.756 5.41299 70.293C5.41299 68.83 4.22699 67.644 2.76399 67.644Z" fill="#F1F7FE"/>
<path d="M97.236 54.115C95.773 54.115 94.587 55.301 94.587 56.764C94.587 58.227 95.773 59.413 97.236 59.413C98.699 59.413 99.885 58.227 99.885 56.764C99.885 55.301 98.699 54.115 97.236 54.115Z" fill="#F1F7FE"/>
<path d="M83.74 54.115C82.277 54.115 81.091 55.301 81.091 56.764C81.091 58.227 82.277 59.413 83.74 59.413C85.203 59.413 86.389 58.227 86.389 56.764C86.389 55.301 85.203 54.115 83.74 54.115Z" fill="#F1F7FE"/>
<path d="M70.244 54.115C68.781 54.115 67.595 55.301 67.595 56.764C67.595 58.227 68.781 59.413 70.244 59.413C71.707 59.413 72.893 58.227 72.893 56.764C72.893 55.301 71.707 54.115 70.244 54.115Z" fill="#F1F7FE"/>
<path d="M97.236 40.587C95.773 40.587 94.587 41.773 94.587 43.236C94.587 44.699 95.773 45.885 97.236 45.885C98.699 45.885 99.885 44.699 99.885 43.236C99.885 41.773 98.699 40.587 97.236 40.587Z" fill="#F1F7FE"/>
<path d="M83.74 40.587C82.277 40.587 81.091 41.773 81.091 43.236C81.091 44.699 82.277 45.885 83.74 45.885C85.203 45.885 86.389 44.699 86.389 43.236C86.389 41.773 85.203 40.587 83.74 40.587Z" fill="#F1F7FE"/>
<path d="M70.244 40.587C68.781 40.587 67.595 41.773 67.595 43.236C67.595 44.699 68.781 45.885 70.244 45.885C71.707 45.885 72.893 44.699 72.893 43.236C72.893 41.773 71.707 40.587 70.244 40.587Z" fill="#F1F7FE"/>
<path d="M97.236 27.058C95.773 27.058 94.587 28.244 94.587 29.707C94.587 31.17 95.773 32.356 97.236 32.356C98.699 32.356 99.885 31.17 99.885 29.707C99.885 28.244 98.699 27.058 97.236 27.058Z" fill="#F1F7FE"/>
<path d="M83.74 27.058C82.277 27.058 81.091 28.244 81.091 29.707C81.091 31.17 82.277 32.356 83.74 32.356C85.203 32.356 86.389 31.17 86.389 29.707C86.389 28.244 85.203 27.058 83.74 27.058Z" fill="#F1F7FE"/>
<path d="M70.244 27.058C68.781 27.058 67.595 28.244 67.595 29.707C67.595 31.17 68.781 32.356 70.244 32.356C71.707 32.356 72.893 31.17 72.893 29.707C72.893 28.244 71.707 27.058 70.244 27.058Z" fill="#F1F7FE"/>
<path d="M97.236 13.529C95.773 13.529 94.587 14.715 94.587 16.178C94.587 17.641 95.773 18.827 97.236 18.827C98.699 18.827 99.885 17.641 99.885 16.178C99.885 14.715 98.699 13.529 97.236 13.529Z" fill="#F1F7FE"/>
<path d="M83.74 13.529C82.277 13.529 81.091 14.715 81.091 16.178C81.091 17.641 82.277 18.827 83.74 18.827C85.203 18.827 86.389 17.641 86.389 16.178C86.389 14.715 85.203 13.529 83.74 13.529Z" fill="#F1F7FE"/>
<path d="M70.244 13.529C68.781 13.529 67.595 14.715 67.595 16.178C67.595 17.641 68.781 18.827 70.244 18.827C71.707 18.827 72.893 17.641 72.893 16.178C72.893 14.715 71.707 13.529 70.244 13.529Z" fill="#F1F7FE"/>
<path d="M97.236 -2.28882e-05C95.773 -2.28882e-05 94.587 1.18598 94.587 2.64898C94.587 4.11198 95.773 5.29797 97.236 5.29797C98.699 5.29797 99.885 4.11198 99.885 2.64898C99.885 1.18598 98.699 -2.28882e-05 97.236 -2.28882e-05Z" fill="#F1F7FE"/>
<path d="M83.74 -2.28882e-05C82.277 -2.28882e-05 81.091 1.18598 81.091 2.64898C81.091 4.11198 82.277 5.29797 83.74 5.29797C85.203 5.29797 86.389 4.11198 86.389 2.64898C86.389 1.18598 85.203 -2.28882e-05 83.74 -2.28882e-05Z" fill="#F1F7FE"/>
<path d="M70.244 -2.28882e-05C68.781 -2.28882e-05 67.595 1.18598 67.595 2.64898C67.595 4.11198 68.781 5.29797 70.244 5.29797C71.707 5.29797 72.893 4.11198 72.893 2.64898C72.893 1.18598 71.707 -2.28882e-05 70.244 -2.28882e-05Z" fill="#F1F7FE"/>
</g>
<defs>
<clipPath id="clip0_236_8352">
<rect width="100" height="100" fill="white" transform="matrix(-1 0 0 -1 100 100)"/>
</clipPath>
</defs>
</svg>
