<svg width="100" height="100" viewBox="0 0 100 100" fill="none" xmlns="http://www.w3.org/2000/svg">
<g clip-path="url(#clip0_236_8393)">
<path d="M2.76399 5.298C4.22699 5.298 5.41299 4.112 5.41299 2.649C5.41299 1.186 4.22699 0 2.76399 0C1.30099 0 0.11499 1.186 0.11499 2.649C0.11499 4.112 1.30099 5.298 2.76399 5.298Z" fill="#F1F7FE"/>
<path d="M16.26 5.298C17.723 5.298 18.909 4.112 18.909 2.649C18.909 1.186 17.723 0 16.26 0C14.797 0 13.611 1.186 13.611 2.649C13.611 4.112 14.797 5.298 16.26 5.298Z" fill="#F1F7FE"/>
<path d="M29.756 5.298C31.219 5.298 32.405 4.112 32.405 2.649C32.405 1.186 31.219 0 29.756 0C28.293 0 27.107 1.186 27.107 2.649C27.107 4.112 28.293 5.298 29.756 5.298Z" fill="#F1F7FE"/>
<path d="M43.252 5.298C44.715 5.298 45.901 4.112 45.901 2.649C45.901 1.186 44.715 0 43.252 0C41.789 0 40.603 1.186 40.603 2.649C40.603 4.112 41.789 5.298 43.252 5.298Z" fill="#F1F7FE"/>
<path d="M56.748 5.298C58.211 5.298 59.397 4.112 59.397 2.649C59.397 1.186 58.211 0 56.748 0C55.285 0 54.099 1.186 54.099 2.649C54.099 4.112 55.285 5.298 56.748 5.298Z" fill="#F1F7FE"/>
<path d="M70.244 5.298C71.707 5.298 72.893 4.112 72.893 2.649C72.893 1.186 71.707 0 70.244 0C68.781 0 67.595 1.186 67.595 2.649C67.595 4.112 68.781 5.298 70.244 5.298Z" fill="#F1F7FE"/>
<path d="M83.74 5.298C85.203 5.298 86.389 4.112 86.389 2.649C86.389 1.186 85.203 0 83.74 0C82.277 0 81.091 1.186 81.091 2.649C81.091 4.112 82.277 5.298 83.74 5.298Z" fill="#F1F7FE"/>
<path d="M97.236 5.298C98.699 5.298 99.885 4.112 99.885 2.649C99.885 1.186 98.699 0 97.236 0C95.773 0 94.587 1.186 94.587 2.649C94.587 4.112 95.773 5.298 97.236 5.298Z" fill="#F1F7FE"/>
<path d="M2.76399 18.827C4.22699 18.827 5.41299 17.641 5.41299 16.178C5.41299 14.715 4.22699 13.529 2.76399 13.529C1.30099 13.529 0.11499 14.715 0.11499 16.178C0.11499 17.641 1.30099 18.827 2.76399 18.827Z" fill="#F1F7FE"/>
<path d="M16.26 18.827C17.723 18.827 18.909 17.641 18.909 16.178C18.909 14.715 17.723 13.529 16.26 13.529C14.797 13.529 13.611 14.715 13.611 16.178C13.611 17.641 14.797 18.827 16.26 18.827Z" fill="#F1F7FE"/>
<path d="M29.756 18.827C31.219 18.827 32.405 17.641 32.405 16.178C32.405 14.715 31.219 13.529 29.756 13.529C28.293 13.529 27.107 14.715 27.107 16.178C27.107 17.641 28.293 18.827 29.756 18.827Z" fill="#F1F7FE"/>
<path d="M43.252 18.827C44.715 18.827 45.901 17.641 45.901 16.178C45.901 14.715 44.715 13.529 43.252 13.529C41.789 13.529 40.603 14.715 40.603 16.178C40.603 17.641 41.789 18.827 43.252 18.827Z" fill="#F1F7FE"/>
<path d="M56.748 18.827C58.211 18.827 59.397 17.641 59.397 16.178C59.397 14.715 58.211 13.529 56.748 13.529C55.285 13.529 54.099 14.715 54.099 16.178C54.099 17.641 55.285 18.827 56.748 18.827Z" fill="#F1F7FE"/>
<path d="M70.244 18.827C71.707 18.827 72.893 17.641 72.893 16.178C72.893 14.715 71.707 13.529 70.244 13.529C68.781 13.529 67.595 14.715 67.595 16.178C67.595 17.641 68.781 18.827 70.244 18.827Z" fill="#F1F7FE"/>
<path d="M83.74 18.827C85.203 18.827 86.389 17.641 86.389 16.178C86.389 14.715 85.203 13.529 83.74 13.529C82.277 13.529 81.091 14.715 81.091 16.178C81.091 17.641 82.277 18.827 83.74 18.827Z" fill="#F1F7FE"/>
<path d="M97.236 18.827C98.699 18.827 99.885 17.641 99.885 16.178C99.885 14.715 98.699 13.529 97.236 13.529C95.773 13.529 94.587 14.715 94.587 16.178C94.587 17.641 95.773 18.827 97.236 18.827Z" fill="#F1F7FE"/>
<path d="M2.76399 32.356C4.22699 32.356 5.41299 31.17 5.41299 29.707C5.41299 28.244 4.22699 27.058 2.76399 27.058C1.30099 27.058 0.11499 28.244 0.11499 29.707C0.11499 31.17 1.30099 32.356 2.76399 32.356Z" fill="#F1F7FE"/>
<path d="M16.26 32.356C17.723 32.356 18.909 31.17 18.909 29.707C18.909 28.244 17.723 27.058 16.26 27.058C14.797 27.058 13.611 28.244 13.611 29.707C13.611 31.17 14.797 32.356 16.26 32.356Z" fill="#F1F7FE"/>
<path d="M29.756 32.356C31.219 32.356 32.405 31.17 32.405 29.707C32.405 28.244 31.219 27.058 29.756 27.058C28.293 27.058 27.107 28.244 27.107 29.707C27.107 31.17 28.293 32.356 29.756 32.356Z" fill="#F1F7FE"/>
<path d="M43.252 32.356C44.715 32.356 45.901 31.17 45.901 29.707C45.901 28.244 44.715 27.058 43.252 27.058C41.789 27.058 40.603 28.244 40.603 29.707C40.603 31.17 41.789 32.356 43.252 32.356Z" fill="#F1F7FE"/>
<path d="M56.748 32.356C58.211 32.356 59.397 31.17 59.397 29.707C59.397 28.244 58.211 27.058 56.748 27.058C55.285 27.058 54.099 28.244 54.099 29.707C54.099 31.17 55.285 32.356 56.748 32.356Z" fill="#F1F7FE"/>
<path d="M70.244 32.356C71.707 32.356 72.893 31.17 72.893 29.707C72.893 28.244 71.707 27.058 70.244 27.058C68.781 27.058 67.595 28.244 67.595 29.707C67.595 31.17 68.781 32.356 70.244 32.356Z" fill="#F1F7FE"/>
<path d="M83.74 32.356C85.203 32.356 86.389 31.17 86.389 29.707C86.389 28.244 85.203 27.058 83.74 27.058C82.277 27.058 81.091 28.244 81.091 29.707C81.091 31.17 82.277 32.356 83.74 32.356Z" fill="#F1F7FE"/>
<path d="M97.236 32.356C98.699 32.356 99.885 31.17 99.885 29.707C99.885 28.244 98.699 27.058 97.236 27.058C95.773 27.058 94.587 28.244 94.587 29.707C94.587 31.17 95.773 32.356 97.236 32.356Z" fill="#F1F7FE"/>
<path d="M2.76399 45.885C4.22699 45.885 5.41299 44.699 5.41299 43.236C5.41299 41.773 4.22699 40.587 2.76399 40.587C1.30099 40.587 0.11499 41.773 0.11499 43.236C0.11499 44.699 1.30099 45.885 2.76399 45.885Z" fill="#F1F7FE"/>
<path d="M16.26 45.885C17.723 45.885 18.909 44.699 18.909 43.236C18.909 41.773 17.723 40.587 16.26 40.587C14.797 40.587 13.611 41.773 13.611 43.236C13.611 44.699 14.797 45.885 16.26 45.885Z" fill="#F1F7FE"/>
<path d="M29.756 45.885C31.219 45.885 32.405 44.699 32.405 43.236C32.405 41.773 31.219 40.587 29.756 40.587C28.293 40.587 27.107 41.773 27.107 43.236C27.107 44.699 28.293 45.885 29.756 45.885Z" fill="#F1F7FE"/>
<path d="M2.76399 59.413C4.22699 59.413 5.41299 58.227 5.41299 56.764C5.41299 55.301 4.22699 54.115 2.76399 54.115C1.30099 54.115 0.11499 55.301 0.11499 56.764C0.11499 58.227 1.30099 59.413 2.76399 59.413Z" fill="#F1F7FE"/>
<path d="M16.26 59.413C17.723 59.413 18.909 58.227 18.909 56.764C18.909 55.301 17.723 54.115 16.26 54.115C14.797 54.115 13.611 55.301 13.611 56.764C13.611 58.227 14.797 59.413 16.26 59.413Z" fill="#F1F7FE"/>
<path d="M29.756 59.413C31.219 59.413 32.405 58.227 32.405 56.764C32.405 55.301 31.219 54.115 29.756 54.115C28.293 54.115 27.107 55.301 27.107 56.764C27.107 58.227 28.293 59.413 29.756 59.413Z" fill="#F1F7FE"/>
<path d="M2.76399 72.942C4.22699 72.942 5.41299 71.756 5.41299 70.293C5.41299 68.83 4.22699 67.644 2.76399 67.644C1.30099 67.644 0.11499 68.83 0.11499 70.293C0.11499 71.756 1.30099 72.942 2.76399 72.942Z" fill="#F1F7FE"/>
<path d="M16.26 72.942C17.723 72.942 18.909 71.756 18.909 70.293C18.909 68.83 17.723 67.644 16.26 67.644C14.797 67.644 13.611 68.83 13.611 70.293C13.611 71.756 14.797 72.942 16.26 72.942Z" fill="#F1F7FE"/>
<path d="M29.756 72.942C31.219 72.942 32.405 71.756 32.405 70.293C32.405 68.83 31.219 67.644 29.756 67.644C28.293 67.644 27.107 68.83 27.107 70.293C27.107 71.756 28.293 72.942 29.756 72.942Z" fill="#F1F7FE"/>
<path d="M2.76399 86.471C4.22699 86.471 5.41299 85.285 5.41299 83.822C5.41299 82.359 4.22699 81.173 2.76399 81.173C1.30099 81.173 0.11499 82.359 0.11499 83.822C0.11499 85.285 1.30099 86.471 2.76399 86.471Z" fill="#F1F7FE"/>
<path d="M16.26 86.471C17.723 86.471 18.909 85.285 18.909 83.822C18.909 82.359 17.723 81.173 16.26 81.173C14.797 81.173 13.611 82.359 13.611 83.822C13.611 85.285 14.797 86.471 16.26 86.471Z" fill="#F1F7FE"/>
<path d="M29.756 86.471C31.219 86.471 32.405 85.285 32.405 83.822C32.405 82.359 31.219 81.173 29.756 81.173C28.293 81.173 27.107 82.359 27.107 83.822C27.107 85.285 28.293 86.471 29.756 86.471Z" fill="#F1F7FE"/>
<path d="M2.76399 100C4.22699 100 5.41299 98.814 5.41299 97.351C5.41299 95.888 4.22699 94.702 2.76399 94.702C1.30099 94.702 0.11499 95.888 0.11499 97.351C0.11499 98.814 1.30099 100 2.76399 100Z" fill="#F1F7FE"/>
<path d="M16.26 100C17.723 100 18.909 98.814 18.909 97.351C18.909 95.888 17.723 94.702 16.26 94.702C14.797 94.702 13.611 95.888 13.611 97.351C13.611 98.814 14.797 100 16.26 100Z" fill="#F1F7FE"/>
<path d="M29.756 100C31.219 100 32.405 98.814 32.405 97.351C32.405 95.888 31.219 94.702 29.756 94.702C28.293 94.702 27.107 95.888 27.107 97.351C27.107 98.814 28.293 100 29.756 100Z" fill="#F1F7FE"/>
</g>
<defs>
<clipPath id="clip0_236_8393">
<rect width="100" height="100" fill="white"/>
</clipPath>
</defs>
</svg>
