<svg width="42" height="100" viewBox="0 0 42 100" fill="none" xmlns="http://www.w3.org/2000/svg">
<g clip-path="url(#clip0_161_3965)">
<path d="M27 0L-53 0L-53 80L27 80L27 0Z" fill="#C2CBFF"/>
<path d="M7.48997 24.238C8.66026 24.238 9.60897 23.2893 9.60897 22.119C9.60897 20.9487 8.66026 20 7.48997 20C6.31968 20 5.37097 20.9487 5.37097 22.119C5.37097 23.2893 6.31968 24.238 7.48997 24.238Z" fill="#111111"/>
<path d="M18.287 24.238C19.4573 24.238 20.406 23.2893 20.406 22.119C20.406 20.9487 19.4573 20 18.287 20C17.1167 20 16.168 20.9487 16.168 22.119C16.168 23.2893 17.1167 24.238 18.287 24.238Z" fill="#111111"/>
<path d="M29.084 24.238C30.2543 24.238 31.203 23.2893 31.203 22.119C31.203 20.9487 30.2543 20 29.084 20C27.9137 20 26.965 20.9487 26.965 22.119C26.965 23.2893 27.9137 24.238 29.084 24.238Z" fill="#111111"/>
<path d="M39.881 24.238C41.0513 24.238 42 23.2893 42 22.119C42 20.9487 41.0513 20 39.881 20C38.7107 20 37.762 20.9487 37.762 22.119C37.762 23.2893 38.7107 24.238 39.881 24.238Z" fill="#111111"/>
<path d="M7.48997 35.0612C8.66026 35.0612 9.60897 34.1125 9.60897 32.9422C9.60897 31.772 8.66026 30.8232 7.48997 30.8232C6.31968 30.8232 5.37097 31.772 5.37097 32.9422C5.37097 34.1125 6.31968 35.0612 7.48997 35.0612Z" fill="#111111"/>
<path d="M18.287 35.0612C19.4573 35.0612 20.406 34.1125 20.406 32.9422C20.406 31.772 19.4573 30.8232 18.287 30.8232C17.1167 30.8232 16.168 31.772 16.168 32.9422C16.168 34.1125 17.1167 35.0612 18.287 35.0612Z" fill="#111111"/>
<path d="M29.084 35.0612C30.2543 35.0612 31.203 34.1125 31.203 32.9422C31.203 31.772 30.2543 30.8232 29.084 30.8232C27.9137 30.8232 26.965 31.772 26.965 32.9422C26.965 34.1125 27.9137 35.0612 29.084 35.0612Z" fill="#111111"/>
<path d="M39.881 35.0612C41.0513 35.0612 42 34.1125 42 32.9422C42 31.772 41.0513 30.8232 39.881 30.8232C38.7107 30.8232 37.762 31.772 37.762 32.9422C37.762 34.1125 38.7107 35.0612 39.881 35.0612Z" fill="#111111"/>
<path d="M7.48997 45.884C8.66026 45.884 9.60897 44.9353 9.60897 43.765C9.60897 42.5947 8.66026 41.646 7.48997 41.646C6.31968 41.646 5.37097 42.5947 5.37097 43.765C5.37097 44.9353 6.31968 45.884 7.48997 45.884Z" fill="#111111"/>
<path d="M18.287 45.884C19.4573 45.884 20.406 44.9353 20.406 43.765C20.406 42.5947 19.4573 41.646 18.287 41.646C17.1167 41.646 16.168 42.5947 16.168 43.765C16.168 44.9353 17.1167 45.884 18.287 45.884Z" fill="#111111"/>
<path d="M29.084 45.884C30.2543 45.884 31.203 44.9353 31.203 43.765C31.203 42.5947 30.2543 41.646 29.084 41.646C27.9137 41.646 26.965 42.5947 26.965 43.765C26.965 44.9353 27.9137 45.884 29.084 45.884Z" fill="#111111"/>
<path d="M39.881 45.884C41.0513 45.884 42 44.9353 42 43.765C42 42.5947 41.0513 41.646 39.881 41.646C38.7107 41.646 37.762 42.5947 37.762 43.765C37.762 44.9353 38.7107 45.884 39.881 45.884Z" fill="#111111"/>
<path d="M7.48997 56.7072C8.66026 56.7072 9.60897 55.7585 9.60897 54.5882C9.60897 53.4179 8.66026 52.4692 7.48997 52.4692C6.31968 52.4692 5.37097 53.4179 5.37097 54.5882C5.37097 55.7585 6.31968 56.7072 7.48997 56.7072Z" fill="#111111"/>
<path d="M18.287 56.7072C19.4573 56.7072 20.406 55.7585 20.406 54.5882C20.406 53.4179 19.4573 52.4692 18.287 52.4692C17.1167 52.4692 16.168 53.4179 16.168 54.5882C16.168 55.7585 17.1167 56.7072 18.287 56.7072Z" fill="#111111"/>
<path d="M29.084 56.7072C30.2543 56.7072 31.203 55.7585 31.203 54.5882C31.203 53.4179 30.2543 52.4692 29.084 52.4692C27.9137 52.4692 26.965 53.4179 26.965 54.5882C26.965 55.7585 27.9137 56.7072 29.084 56.7072Z" fill="#111111"/>
<path d="M39.881 56.7072C41.0513 56.7072 42 55.7585 42 54.5882C42 53.4179 41.0513 52.4692 39.881 52.4692C38.7107 52.4692 37.762 53.4179 37.762 54.5882C37.762 55.7585 38.7107 56.7072 39.881 56.7072Z" fill="#111111"/>
<path d="M7.48997 67.531C8.66026 67.531 9.60897 66.5823 9.60897 65.412C9.60897 64.2417 8.66026 63.293 7.48997 63.293C6.31968 63.293 5.37097 64.2417 5.37097 65.412C5.37097 66.5823 6.31968 67.531 7.48997 67.531Z" fill="#111111"/>
<path d="M18.287 67.531C19.4573 67.531 20.406 66.5823 20.406 65.412C20.406 64.2417 19.4573 63.293 18.287 63.293C17.1167 63.293 16.168 64.2417 16.168 65.412C16.168 66.5823 17.1167 67.531 18.287 67.531Z" fill="#111111"/>
<path d="M29.084 67.531C30.2543 67.531 31.203 66.5823 31.203 65.412C31.203 64.2417 30.2543 63.293 29.084 63.293C27.9137 63.293 26.965 64.2417 26.965 65.412C26.965 66.5823 27.9137 67.531 29.084 67.531Z" fill="#111111"/>
<path d="M39.881 67.531C41.0513 67.531 42 66.5823 42 65.412C42 64.2417 41.0513 63.293 39.881 63.293C38.7107 63.293 37.762 64.2417 37.762 65.412C37.762 66.5823 38.7107 67.531 39.881 67.531Z" fill="#111111"/>
<path d="M7.48997 78.3542C8.66026 78.3542 9.60897 77.4055 9.60897 76.2352C9.60897 75.0649 8.66026 74.1162 7.48997 74.1162C6.31968 74.1162 5.37097 75.0649 5.37097 76.2352C5.37097 77.4055 6.31968 78.3542 7.48997 78.3542Z" fill="#111111"/>
<path d="M18.287 78.3542C19.4573 78.3542 20.406 77.4055 20.406 76.2352C20.406 75.0649 19.4573 74.1162 18.287 74.1162C17.1167 74.1162 16.168 75.0649 16.168 76.2352C16.168 77.4055 17.1167 78.3542 18.287 78.3542Z" fill="#111111"/>
<path d="M29.084 78.3542C30.2543 78.3542 31.203 77.4055 31.203 76.2352C31.203 75.0649 30.2543 74.1162 29.084 74.1162C27.9137 74.1162 26.965 75.0649 26.965 76.2352C26.965 77.4055 27.9137 78.3542 29.084 78.3542Z" fill="#111111"/>
<path d="M39.881 78.3542C41.0513 78.3542 42 77.4055 42 76.2352C42 75.0649 41.0513 74.1162 39.881 74.1162C38.7107 74.1162 37.762 75.0649 37.762 76.2352C37.762 77.4055 38.7107 78.3542 39.881 78.3542Z" fill="#111111"/>
<path d="M7.48997 89.177C8.66026 89.177 9.60897 88.2283 9.60897 87.058C9.60897 85.8877 8.66026 84.939 7.48997 84.939C6.31968 84.939 5.37097 85.8877 5.37097 87.058C5.37097 88.2283 6.31968 89.177 7.48997 89.177Z" fill="#111111"/>
<path d="M18.287 89.177C19.4573 89.177 20.406 88.2283 20.406 87.058C20.406 85.8877 19.4573 84.939 18.287 84.939C17.1167 84.939 16.168 85.8877 16.168 87.058C16.168 88.2283 17.1167 89.177 18.287 89.177Z" fill="#111111"/>
<path d="M29.084 89.177C30.2543 89.177 31.203 88.2283 31.203 87.058C31.203 85.8877 30.2543 84.939 29.084 84.939C27.9137 84.939 26.965 85.8877 26.965 87.058C26.965 88.2283 27.9137 89.177 29.084 89.177Z" fill="#111111"/>
<path d="M39.881 89.177C41.0513 89.177 42 88.2283 42 87.058C42 85.8877 41.0513 84.939 39.881 84.939C38.7107 84.939 37.762 85.8877 37.762 87.058C37.762 88.2283 38.7107 89.177 39.881 89.177Z" fill="#111111"/>
<path d="M7.48997 100C8.66026 100 9.60897 99.0515 9.60897 97.8812C9.60897 96.7109 8.66026 95.7622 7.48997 95.7622C6.31968 95.7622 5.37097 96.7109 5.37097 97.8812C5.37097 99.0515 6.31968 100 7.48997 100Z" fill="#111111"/>
<path d="M18.287 100C19.4573 100 20.406 99.0515 20.406 97.8812C20.406 96.7109 19.4573 95.7622 18.287 95.7622C17.1167 95.7622 16.168 96.7109 16.168 97.8812C16.168 99.0515 17.1167 100 18.287 100Z" fill="#111111"/>
<path d="M29.084 100C30.2543 100 31.203 99.0515 31.203 97.8812C31.203 96.7109 30.2543 95.7622 29.084 95.7622C27.9137 95.7622 26.965 96.7109 26.965 97.8812C26.965 99.0515 27.9137 100 29.084 100Z" fill="#111111"/>
<path d="M39.881 100C41.0513 100 42 99.0515 42 97.8812C42 96.7109 41.0513 95.7622 39.881 95.7622C38.7107 95.7622 37.762 96.7109 37.762 97.8812C37.762 99.0515 38.7107 100 39.881 100Z" fill="#111111"/>
</g>
<defs>
<clipPath id="clip0_161_3965">
<rect width="100" height="100" fill="white" transform="translate(-58)"/>
</clipPath>
</defs>
</svg>
