<svg width="39" height="47" viewBox="0 0 39 47" fill="none"
  xmlns="http://www.w3.org/2000/svg">
  <path d="M20 23.123C19.5068 27.4792 17.0164 36.1915 11 36.1915" stroke="#EF6820" stroke-width="2" stroke-linecap="round"/>
  <path d="M20 45.6851C20.4932 40.9179 22.9836 31.3837 29 31.3837" stroke="#EF6820" stroke-width="2" stroke-linecap="round"/>
  <path d="M20 23C20.4932 25.7945 22.9836 31.3836 29 31.3836" stroke="#EF6820" stroke-width="2" stroke-linecap="round"/>
  <path d="M20 45.6851C19.5068 42.5618 17.0164 36.3152 11 36.3152" stroke="#EF6820" stroke-width="2" stroke-linecap="round"/>
  <path d="M7.74457 10.0923C7.375 13.3568 5.5087 19.8858 1 19.8858" stroke="#EF6820" stroke-width="2" stroke-linecap="round"/>
  <path d="M7.74457 27C8.11414 23.4275 9.98044 16.2826 14.4891 16.2826" stroke="#EF6820" stroke-width="2" stroke-linecap="round"/>
  <path d="M7.74457 10C8.11414 12.0942 9.98044 16.2826 14.4891 16.2826" stroke="#EF6820" stroke-width="2" stroke-linecap="round"/>
  <path d="M7.74457 27C7.375 24.6594 5.5087 19.9783 1 19.9783" stroke="#EF6820" stroke-width="2" stroke-linecap="round"/>
  <path d="M28.4088 1.13135C27.948 5.77368 25.6212 15.0584 20 15.0584" stroke="#EF6820" stroke-width="2" stroke-linecap="round"/>
  <path d="M28.4088 25.1753C28.9343 21.4089 31.5883 13.876 38 13.876" stroke="#EF6820" stroke-width="2" stroke-linecap="round"/>
  <path d="M28.4088 1C28.9343 5.29197 31.5883 13.8759 38 13.8759" stroke="#EF6820" stroke-width="2" stroke-linecap="round"/>
  <path d="M28.4088 25.1753C27.948 21.803 25.6212 15.0585 20 15.0585" stroke="#EF6820" stroke-width="2" stroke-linecap="round"/>
</svg>
