<svg width="368" height="33" viewBox="0 0 368 33" fill="none" xmlns="http://www.w3.org/2000/svg">
<path fill-rule="evenodd" clip-rule="evenodd" d="M263.268 0.104706C263.148 0.215138 258.034 0.368075 251.904 0.444741C245.773 0.521011 238.616 0.685467 236 0.809405C228.995 1.1411 227.343 1.15143 226.841 0.866606C226.593 0.72519 226.287 0.704137 226.161 0.819734C225.866 1.09025 221.307 1.34766 212.728 1.57806C208.968 1.67935 205.739 1.84818 205.553 1.95385C205.367 2.05951 203.481 2.26171 201.361 2.40312C199.242 2.54454 197.447 2.81069 197.371 2.99461C197.296 3.17853 196.809 3.19005 196.29 3.02003C195.446 2.74435 194.332 2.71535 192.008 2.9096C191.489 2.9529 191.351 3.18091 191.551 3.66673C191.818 4.31423 191.784 4.31304 191.055 3.64886C190.412 3.06333 189.836 2.97991 187.835 3.18091C186.495 3.31558 184.474 3.40416 183.344 3.37755C182.076 3.34775 181.29 3.50109 181.29 3.77796C181.29 4.07867 180.827 4.13071 179.884 3.93646C179.111 3.77677 178.284 3.66435 178.046 3.68699C177.809 3.70924 176.154 3.76326 174.37 3.80696C172.586 3.85065 170.948 3.97777 170.731 4.0886C170.253 4.3333 168.929 4.45644 163.558 4.75556C161.298 4.88148 158.866 5.05627 158.152 5.14327C155.043 5.52382 151.434 5.80705 148.421 5.90676C146.637 5.96594 144.107 6.22137 142.799 6.47401C140.367 6.94394 135.103 7.3817 132.456 7.33403C131.644 7.31933 130.82 7.53861 130.625 7.82104C130.336 8.23854 130.269 8.23695 130.263 7.8135C130.257 7.32489 129.243 7.34476 125.932 7.89731C123.445 8.31282 121.059 8.60241 119.012 8.73787C117.704 8.82486 115.563 8.99408 114.255 9.11445C112.946 9.23521 110.611 9.41079 109.065 9.50493C107.519 9.59908 106.254 9.70077 106.254 9.73056C106.254 9.78896 105.596 9.94547 103.933 10.2831C103.371 10.3975 101.424 10.6049 99.6084 10.7443C96.0494 11.0172 94.5764 11.1737 94.5764 11.2786C94.5764 11.3151 93.4086 11.4276 91.9814 11.5285C87.8347 11.822 86.0836 12.0143 83.5479 12.4536C82.2396 12.6804 80.0988 12.9732 78.7906 13.1043C77.4823 13.2358 75.6464 13.4197 74.7105 13.5135C73.775 13.6072 72.8205 13.8575 72.59 14.0692C72.3193 14.3179 71.8876 14.3151 71.3721 14.0616C70.8501 13.805 70.2991 13.8038 69.7832 14.0573C69.3485 14.271 67.9373 14.4843 66.6476 14.5312C65.3575 14.5781 63.8157 14.7842 63.221 14.9888C62.6264 15.1938 61.4586 15.4095 60.6261 15.4687C57.0659 15.7205 53.8871 16.1932 53.4204 16.54C53.1056 16.7744 52.821 16.7692 52.658 16.5261C52.4888 16.2754 51.9041 16.2747 50.9976 16.5237C50.2274 16.7354 48.5493 16.9952 47.2679 17.1009C45.986 17.2062 44.7659 17.3901 44.5557 17.5097C44.346 17.6288 43.3508 17.8028 42.3449 17.8966C39.7806 18.1357 38.1925 18.3784 36.1906 18.8372C35.2391 19.0553 34.1202 19.1379 33.7038 19.0208C33.2873 18.9036 32.9465 18.9536 32.946 19.1324C32.9452 19.3107 32.3829 19.4748 31.6957 19.497C31.0089 19.5189 30.0847 19.6738 29.6427 19.8411C29.2003 20.0083 27.828 20.1835 26.5928 20.2299C25.358 20.2764 24.0839 20.5152 23.7617 20.7607C23.4395 21.0065 22.796 21.2167 22.3311 21.2286C19.6293 21.2961 17.3025 21.6 16.8333 21.9468C16.5379 22.1657 15.6634 22.4688 14.8906 22.6205C14.1173 22.7723 13.4841 23.0166 13.4832 23.1628C13.4819 23.3093 12.8497 23.4706 12.0777 23.5211C9.70201 23.6764 8.93823 23.9111 9.0762 24.443C9.17264 24.8149 9.05501 24.8403 8.64371 24.536C7.85442 23.9521 5.50817 24.3561 4.45507 25.2574C3.97025 25.6721 3.25881 26.0113 2.87389 26.0113C1.92718 26.0113 -0.497345 28.2669 0.0908381 28.6005C0.340816 28.7427 0.427747 29.1996 0.283729 29.6163C-0.00560534 30.4532 0.461048 31.4587 0.888778 30.92C1.03755 30.7329 1.59719 30.3547 2.13218 30.0798C2.99023 29.6389 3.10528 29.6687 3.10528 30.3313C3.10528 30.7536 3.49192 31.1754 3.98798 31.2946C4.73143 31.4734 4.82398 31.3709 4.574 30.6475C4.41052 30.1748 3.96463 29.5507 3.58274 29.2607C2.97553 28.7987 3.02397 28.7606 3.97025 28.9557C4.56492 29.078 5.19116 29.1809 5.36243 29.1837C5.53326 29.1868 5.56094 29.4574 5.42427 29.7851C5.28717 30.1128 5.39054 30.3809 5.65392 30.3809C5.91731 30.3809 6.13269 30.2078 6.13269 29.996C6.13269 29.7847 6.44408 29.7211 6.8251 29.8554C7.20569 29.9897 7.68964 29.8498 7.89983 29.5452C8.21122 29.0935 8.28302 29.1118 8.28864 29.6433C8.2921 30.0024 8.63592 30.4278 9.05198 30.5887C10.1877 31.028 13.4435 30.9073 14.1078 30.4008C14.5476 30.0655 14.8616 30.1128 15.3853 30.5943C15.9458 31.1091 16.0799 31.1238 16.0799 30.6693C16.0799 30.3599 16.4518 29.7974 16.9068 29.4196C17.7108 28.7511 17.7234 28.7729 17.3704 30.2097C17.0984 31.3192 17.1646 31.8309 17.636 32.2642C18.4789 33.0385 19.5381 32.6071 19.5463 31.4857C19.551 30.8652 19.6644 30.7404 19.9052 31.0896C20.1102 31.386 20.5786 31.4865 21.0237 31.3296C21.4449 31.181 21.9185 31.2509 22.0759 31.4849C22.4003 31.9675 25.5946 31.2163 25.5946 30.6574C25.5946 30.4795 25.4203 30.433 25.2075 30.5537C24.9943 30.6749 24.7072 30.5025 24.5683 30.1708C24.3633 29.6798 24.4749 29.6461 25.1721 29.9885C25.6422 30.2197 26.0271 30.2856 26.0271 30.1347C26.0271 29.9841 26.4163 30.1843 26.8921 30.5796C27.6701 31.2263 27.7571 31.2322 27.7571 30.6411C27.7571 30.2797 28.049 29.9837 28.4058 29.9837C28.7626 29.9837 29.4775 29.5952 29.9947 29.1201C30.6046 28.56 30.8429 28.4766 30.6733 28.883C30.3005 29.7744 30.7758 30.0485 31.5154 29.3688C32.338 28.6136 32.9469 28.6355 32.9469 29.4208C32.9469 29.7668 33.1904 29.9706 33.4875 29.8737C33.7851 29.7768 33.9771 29.2913 33.9148 28.7952C33.8149 27.9959 33.8841 27.9554 34.5203 28.4404C35.1695 28.935 35.2192 28.8643 35.0341 27.7079C34.8706 26.6835 34.9433 26.5142 35.3978 26.861C35.7399 27.1216 35.8614 27.677 35.7027 28.2573C35.4575 29.1539 35.5466 29.2139 36.9915 29.1245C38.5528 29.028 39.1643 28.4516 38.7522 27.4652C38.6298 27.1725 38.8132 26.7172 39.1596 26.4531C39.6816 26.0554 39.8382 26.1798 40.0786 27.184C40.2992 28.108 40.605 28.3948 41.3683 28.3948C42.44 28.3948 43.0775 27.5304 42.4387 26.9437C42.2099 26.7335 42.4197 26.3756 42.9503 26.0713C43.4447 25.7877 43.7206 25.7476 43.5627 25.9819C43.3945 26.2318 43.6345 26.4086 44.1405 26.4086C44.6163 26.4086 45.1257 26.2298 45.2728 26.0113C45.8151 25.2049 46.3631 25.6415 46.085 26.6588C45.8688 27.4497 45.9457 27.6595 46.4012 27.522C46.732 27.4223 47.0629 26.8757 47.1364 26.3077C47.2713 25.2677 48.3309 24.1197 48.7777 24.53C48.91 24.6512 48.6881 25.2133 48.2851 25.7782C47.8444 26.3963 47.744 26.8058 48.0342 26.8058C48.2993 26.8058 48.5164 26.6652 48.5164 26.4932C48.5164 26.3212 49.1146 26.1385 49.8451 26.0872C50.6603 26.0304 51.0686 26.1512 50.9008 26.4002C50.4825 27.0219 51.3691 26.8821 51.9552 26.2334C52.2393 25.9188 52.7302 25.7523 53.0455 25.8636C53.3607 25.9744 53.731 25.8985 53.8685 25.6943C54.0056 25.4906 54.5864 25.4056 55.159 25.5061C55.7316 25.6066 56.3315 25.4933 56.4924 25.2542C56.8678 24.6961 59.7611 24.6838 59.7611 25.2403C59.7611 25.4715 59.9765 25.5386 60.2399 25.3893C60.582 25.195 60.5686 25.0325 60.1936 24.8196C59.4688 24.4081 60.2935 23.9743 62.5061 23.6029C63.7556 23.3927 64.4043 23.4662 64.8407 23.8671C65.6853 24.6429 66.3981 24.5606 66.0551 23.7272C65.793 23.0897 65.8272 23.0849 66.4686 23.6672C67.2825 24.4061 68.8425 24.2401 70.015 23.2899C71.1213 22.3933 72.0429 22.2451 71.7211 23.0158C71.5806 23.3526 71.6541 23.6279 71.8842 23.6279C72.1147 23.6279 72.3033 23.4293 72.3033 23.1866C72.3033 22.897 72.8248 22.835 73.817 23.0058C75.1313 23.2323 75.3307 23.1635 75.3307 22.4831C75.3307 21.6588 77.4395 19.8557 77.8836 20.3003C78.0255 20.4425 77.8988 20.6387 77.6012 20.736C77.3041 20.8337 77.0606 21.2393 77.0606 21.6378C77.0606 22.6189 78.5549 22.2523 79.0959 21.1384L79.4999 20.307L80.3795 21.115C81.1718 21.8427 81.3734 21.8682 82.4036 21.3724C83.4039 20.8913 83.5479 20.8985 83.5479 21.4304C83.5479 21.774 83.9242 22.039 84.4129 22.039C84.8886 22.039 85.2779 21.8602 85.2779 21.6417C85.2779 21.4232 85.7644 21.2445 86.3591 21.2445C86.9538 21.2445 87.4403 21.0467 87.4403 20.8047C87.4403 20.5628 87.708 20.4596 88.0354 20.5747C88.394 20.7011 88.6085 20.5374 88.576 20.1624C88.5432 19.7858 88.9069 19.5109 89.4972 19.4657C90.3942 19.3969 90.4245 19.4585 89.8744 20.2292C89.3225 21.003 89.3558 21.0645 90.3012 21.0268C90.8652 21.0038 91.456 20.8663 91.6143 20.7213C91.7725 20.5759 92.1414 20.6395 92.4338 20.8623C93.1496 21.4082 95.3393 20.5013 95.0391 19.7835C94.7736 19.1471 95.306 19.0942 95.9573 19.6925C96.2955 20.0031 96.6765 20.0051 97.298 19.6996C97.974 19.3675 98.2205 19.4033 98.4121 19.8613C98.547 20.1851 99.0167 20.45 99.4557 20.45C100.583 20.45 102.755 18.2708 102.422 17.4739C102.255 17.0735 102.329 16.9325 102.62 17.0977C102.876 17.2431 102.984 17.7162 102.861 18.1496C102.593 19.0911 102.934 20.0528 103.535 20.0528C103.773 20.0528 103.855 19.7846 103.718 19.4569C103.439 18.7892 104.524 18.6152 104.956 19.2583C105.103 19.4768 105.552 19.6412 105.955 19.6242C106.405 19.6047 106.478 19.5157 106.145 19.3926C105.848 19.2821 105.619 18.8047 105.635 18.3315C105.664 17.4981 105.677 17.4958 106.037 18.2652C106.242 18.7022 106.423 18.8257 106.439 18.5397C106.456 18.2537 106.664 18.1301 106.902 18.2652C107.14 18.4003 107.341 18.2767 107.349 17.9907C107.357 17.6761 107.62 17.7838 108.014 18.2632C108.574 18.9433 108.725 18.9715 109.077 18.4618C109.303 18.1353 109.403 17.6535 109.298 17.3917C109.189 17.1172 109.36 17.004 109.702 17.1243C110.408 17.3734 110.896 18.3887 110.554 18.8968C110.236 19.3703 110.894 19.3548 112.324 18.8555C113.084 18.5902 113.393 18.2513 113.231 17.8624C113.095 17.5379 113.173 17.2721 113.403 17.2721C113.633 17.2721 113.822 17.4398 113.822 17.6447C113.822 18.461 115.664 17.8469 116.056 16.8999C116.388 16.0979 116.542 16.0196 116.865 16.4911C117.083 16.8113 117.152 17.3996 117.016 17.7981C116.802 18.4313 116.953 18.4904 118.216 18.2652C119.011 18.1234 120.005 18.0102 120.427 18.013C120.848 18.0161 121.08 17.8505 120.942 17.6451C120.804 17.4401 120.978 17.2721 121.329 17.2721C121.68 17.2721 122.049 17.4954 122.149 17.7687C122.291 18.156 122.489 18.1456 123.048 17.7218C123.442 17.4231 124.158 17.2729 124.639 17.3885C125.121 17.5041 125.791 17.3452 126.128 17.035C126.505 16.689 126.844 16.6238 127.007 16.8657C127.368 17.4024 129.339 17.2129 129.904 16.5877C130.252 16.2028 130.137 16.0804 129.429 16.0804C128.591 16.0804 128.551 15.9898 129.033 15.1866C129.497 14.414 129.591 14.387 129.729 14.988C129.816 15.3705 130.249 15.6832 130.69 15.6832C131.131 15.6832 131.749 15.9187 132.064 16.2067C132.38 16.4963 133.798 16.7732 135.24 16.8268C137.474 16.9098 138.022 16.7839 139.089 15.9418C140.227 15.044 141.823 14.8843 141.257 15.7249C141.125 15.9203 141.208 16.0804 141.44 16.0804C141.672 16.0804 141.96 15.8568 142.08 15.5839C142.254 15.1866 142.305 15.1866 142.332 15.5839C142.385 16.3601 145.273 16.2087 145.763 15.4039C146.099 14.8533 146.295 14.8192 146.823 15.222C147.342 15.6176 147.517 15.6136 147.697 15.2033C147.854 14.8458 148.031 14.8204 148.28 15.1199C148.476 15.3562 149.318 15.535 150.151 15.5171C151.43 15.4897 151.646 15.3554 151.541 14.6515C151.472 14.1935 151.728 13.5814 152.108 13.291C152.72 12.8254 152.768 12.8826 152.522 13.7828C152.363 14.3631 152.444 14.9161 152.711 15.0674C152.968 15.2132 153.178 15.1374 153.178 14.8986C153.178 14.646 153.676 14.5395 154.368 14.644C155.022 14.7425 155.557 14.8529 155.557 14.8887C155.557 14.9244 156.118 15.0381 156.803 15.1405C157.902 15.305 158.02 15.2271 157.806 14.4756C157.581 13.6851 157.618 13.6696 158.324 14.2563C159.272 15.0436 160.098 15.0714 160.098 14.3163C160.098 14.0013 160.326 13.6147 160.604 13.4566C160.945 13.2636 161.02 13.3859 160.834 13.8305C160.631 14.3171 160.796 14.4915 161.462 14.4915C162.181 14.4915 162.265 14.379 161.873 13.9453C161.477 13.5063 161.594 13.3991 162.469 13.3991C163.105 13.3991 163.558 13.6263 163.558 13.9453C163.558 14.677 164.267 14.6424 164.58 13.8956C164.716 13.5679 165.078 13.314 165.383 13.3311C165.817 13.3558 165.82 13.4058 165.396 13.5627C165.099 13.6731 164.856 13.9333 164.856 14.1415C164.856 14.3647 165.209 14.3457 165.721 14.0942C166.196 13.8602 166.586 13.815 166.586 13.9937C166.586 14.7592 168.968 14.4315 170.328 13.4789C171.717 12.5057 171.775 12.4977 171.775 13.2795C171.775 14.3048 173.276 14.389 173.903 13.3991C174.148 13.0133 174.35 12.9248 174.357 13.2004C174.365 13.4884 174.934 13.697 175.714 13.697C176.64 13.697 176.991 13.5361 176.841 13.1794C176.561 12.5077 179.572 12.2773 180.016 12.9367C180.188 13.1921 180.554 13.2735 180.83 13.1166C181.196 12.9089 181.204 12.6896 180.858 12.3066C180.574 11.9924 180.546 11.6893 180.788 11.5519C181.01 11.4256 181.299 11.6985 181.429 12.1577L181.667 12.9927L182.951 12.1533C184.453 11.1705 184.935 11.0923 184.604 11.8836C184.473 12.1974 184.599 12.5406 184.882 12.6467C185.166 12.7531 185.019 12.854 184.555 12.8711C184.042 12.8902 183.872 13.0411 184.123 13.2572C184.349 13.4523 185.16 13.5222 185.926 13.4126C187.034 13.2537 187.299 13.0395 187.223 12.3627C187.168 11.8605 187.35 11.5527 187.669 11.6115C187.967 11.6663 188.213 11.4875 188.216 11.2142C188.221 10.8833 188.363 10.9163 188.642 11.3136C188.873 11.6413 189.067 11.7307 189.075 11.5122C189.082 11.2937 189.252 11.3521 189.452 11.6417C189.652 11.9313 190.619 12.2673 191.601 12.3881C193.111 12.5744 193.524 12.4624 194.281 11.6631C195.091 10.8075 195.153 10.7944 194.936 11.5265C194.759 12.1287 194.918 12.3567 195.563 12.4203C196.92 12.5537 197.839 12.5442 199.238 12.3825C199.952 12.2999 201.12 12.1986 201.833 12.1577C203.017 12.0894 203.063 12.0357 202.364 11.5483C201.638 11.0426 201.644 11.0025 202.472 10.8035C203.037 10.668 203.347 10.7868 203.347 11.1396C203.347 11.4538 203.614 11.592 203.975 11.4645C204.32 11.3429 204.84 11.3779 205.13 11.5424C205.42 11.7072 206.451 11.8073 207.421 11.7652C208.392 11.7231 210.11 11.6488 211.24 11.6004C212.544 11.5443 213.294 11.3306 213.294 11.0156C213.294 10.7129 213.885 10.5191 214.808 10.5191C215.64 10.5191 216.322 10.7086 216.322 10.9398C216.322 11.1709 216.525 11.2452 216.773 11.1042C217.021 10.9632 217.504 11.0609 217.845 11.3211C218.275 11.6484 218.835 11.6802 219.664 11.4236C220.323 11.2198 221.613 11.1257 222.531 11.2142C223.708 11.3279 224.109 11.2413 223.893 10.9207C223.705 10.6414 223.845 10.5143 224.255 10.5918C224.622 10.6609 225.236 10.3602 225.618 9.92322C226.304 9.13987 226.31 9.14106 226.046 10.0225C225.854 10.6633 225.963 10.9163 226.431 10.9163C226.789 10.9163 227.211 10.7252 227.368 10.4921C227.525 10.2585 227.926 10.1636 228.259 10.2807C228.595 10.3991 228.864 10.2533 228.864 9.95341C228.864 8.92854 230.138 8.92576 230.868 9.94904C231.452 10.7677 231.878 10.9258 233.295 10.8492C234.262 10.7967 235.111 10.5207 235.238 10.2176C235.361 9.92124 235.754 9.78181 236.11 9.90733C236.467 10.0329 237.059 9.90892 237.427 9.63205C238.002 9.19946 238.061 9.25388 237.845 10.0225C237.707 10.5139 237.651 10.9163 237.721 10.9163C238.16 10.9163 240.304 9.68687 240.619 9.25428C240.859 8.92417 240.901 9.12359 240.731 9.79492L240.463 10.8587L244.246 10.7062C246.326 10.622 248.222 10.3761 248.458 10.1592C248.694 9.94229 249.005 9.10015 249.149 8.2878C249.292 7.47545 249.654 6.73579 249.953 6.64443C250.37 6.51652 250.392 6.72824 250.047 7.56085C249.8 8.15591 249.695 8.73111 249.812 8.83876C249.929 8.94641 249.831 9.36868 249.593 9.77664C249.258 10.3518 249.31 10.5191 249.824 10.5191C250.189 10.5191 250.488 10.3514 250.488 10.1465C250.488 9.94149 250.829 9.79333 251.245 9.81756C251.661 9.84139 252.419 9.73454 252.929 9.58041C253.486 9.41238 254.091 9.50414 254.443 9.81041C255.392 10.6359 256.714 10.4094 257.265 9.32737L257.77 8.33427L257.805 9.43978C257.84 10.5397 257.852 10.5441 260.327 10.3534C261.695 10.2482 263.725 10.1528 264.839 10.1417C266.525 10.125 266.914 9.97804 267.161 9.26262C267.425 8.49952 267.503 8.47768 267.862 9.06678C268.177 9.58358 268.452 9.6384 269.108 9.31585C269.687 9.03182 269.95 9.03103 269.95 9.31346C269.95 9.53949 270.242 9.7246 270.599 9.7246C270.956 9.7246 271.247 9.89661 271.247 10.1067C271.247 10.7157 279.321 10.3284 280.178 9.67813C280.773 9.22766 280.937 9.22329 281.095 9.65429C281.236 10.0384 281.592 9.93156 282.417 9.25705C283.039 8.74939 283.282 8.65127 282.958 9.03897C282.228 9.9125 282.667 10.4154 283.563 9.73255C284.099 9.32379 284.225 9.33174 284.236 9.77545C284.245 10.1417 284.456 10.0698 284.88 9.55498C285.227 9.13391 285.639 8.90788 285.797 9.05208C285.954 9.19668 286.358 9.00481 286.693 8.62585C287.141 8.12096 287.364 8.07011 287.53 8.43596C287.654 8.71046 287.983 8.82923 288.259 8.69933C288.537 8.56983 288.299 8.81135 287.731 9.236C287.066 9.73414 286.869 10.1048 287.178 10.2799C287.442 10.4293 288.087 10.0976 288.612 9.54227C289.627 8.47013 290.959 8.15631 290.573 9.08028C290.348 9.61814 291.01 10.5191 291.631 10.5191C291.804 10.5191 292.033 10.1167 292.138 9.62529C292.326 8.75098 292.336 8.74939 292.631 9.5526C292.904 10.2982 293.237 10.3661 296.253 10.2887C298.08 10.2418 299.624 10.1659 299.683 10.1203C300.01 9.86801 303.619 9.93792 304.494 10.2132C305.148 10.4194 305.747 10.3626 306.148 10.0567C306.566 9.73851 306.875 9.71388 307.069 9.9836C307.605 10.7316 309.249 10.8635 309.831 10.2053C310.305 9.66899 310.276 9.61417 309.631 9.83623C309.161 9.9979 308.874 9.90773 308.874 9.59789C308.874 8.70927 310.501 8.92616 310.778 9.85172C310.994 10.5771 311.105 10.6212 311.462 10.1218C311.696 9.79412 311.891 9.73016 311.895 9.98003C311.905 10.6597 313.152 10.9676 314.069 10.5167C314.533 10.2883 314.978 10.2704 315.115 10.4746C315.401 10.9004 318.863 10.7876 319.677 10.3256C320.059 10.1087 320.149 10.152 319.946 10.4551C319.747 10.7491 319.992 10.9048 320.635 10.8937C321.594 10.877 324.66 11.2019 324.66 11.3203C324.66 11.3521 325.584 11.4335 326.714 11.5018C327.844 11.5702 328.769 11.511 328.77 11.3704C328.771 11.2301 329.647 11.099 330.716 11.08C332.147 11.0538 332.661 11.1972 332.661 11.6226C332.661 12.0004 332.953 12.1303 333.505 11.998C333.969 11.8864 334.44 11.9996 334.552 12.2494C334.664 12.4993 334.77 12.3782 334.789 11.9805C334.82 11.3227 334.885 11.3136 335.503 11.8812C336.143 12.4691 336.581 12.5545 339.799 12.7202C340.513 12.7571 341.519 12.9097 342.033 13.0594C342.547 13.2096 343.088 13.1528 343.235 12.9339C343.406 12.6808 343.882 12.6677 344.541 12.8977C345.263 13.15 345.642 13.1154 345.788 12.7833C345.905 12.5212 346.015 12.6193 346.034 13.0018C346.052 13.3844 346.214 13.7037 346.392 13.7121C347.757 13.7752 350.311 14.2456 350.933 14.5483C351.55 14.8482 351.691 14.7485 351.697 14.0088C351.702 13.2771 351.785 13.2167 352.123 13.697C352.468 14.1876 352.543 14.1935 352.549 13.7299C352.552 13.4205 352.678 13.2803 352.828 13.4181C352.978 13.556 353.465 13.4904 353.909 13.2719C354.84 12.8143 354.868 12.8854 354.296 14.267C353.966 15.0635 354.008 15.2859 354.487 15.2859C354.823 15.2859 355.214 15.1151 355.355 14.9062C355.641 14.4795 356.941 14.8152 357.389 15.4317C357.549 15.6526 358.205 15.8985 358.847 15.9771C359.488 16.0562 360.291 16.3756 360.63 16.6874C361.127 17.1438 361.412 17.1601 362.091 16.7704C362.555 16.5043 362.935 16.1666 362.935 16.02C362.935 15.6534 363.824 15.823 364.989 16.4113C365.73 16.7855 365.962 16.7903 365.962 16.43C365.962 16.1471 366.31 16.2468 366.83 16.6786C368.116 17.7476 368.404 17.0735 367.383 15.3809C366.695 14.2392 366.583 13.6676 366.897 12.9097C367.178 12.2312 367.155 11.8772 366.822 11.7755C366.556 11.6941 366.154 11.1821 365.929 10.6375C365.704 10.0932 365.146 9.55816 364.689 9.44852C364.233 9.33889 363.764 9.0203 363.647 8.74065C363.415 8.18452 355.476 5.86981 354.766 6.15106C354.673 6.1876 354.448 5.99375 354.264 5.72045C354.08 5.44755 352.112 4.91088 349.891 4.52834C347.669 4.1454 345.365 3.72791 344.77 3.6C344.176 3.47209 342.619 3.26791 341.31 3.14675C340.002 3.0252 338.555 2.82419 338.094 2.69986C337.633 2.57513 336.173 2.4206 334.85 2.35625C333.527 2.2915 331.958 2.12108 331.363 1.97728C330.769 1.83348 328.628 1.65433 326.606 1.57886C324.584 1.50338 322.93 1.41599 322.93 1.385C322.93 1.35402 322.102 1.25947 321.092 1.17526C319.965 1.08151 319.254 1.18797 319.254 1.44975C319.254 1.73934 319.059 1.72901 318.65 1.41757C318.319 1.16453 316.47 0.928975 314.542 0.894415C312.614 0.859459 311.036 0.731547 311.036 0.609992C311.036 0.488835 307.874 0.341857 304.008 0.283464C300.143 0.225467 296.689 0.169853 296.332 0.159922C295.975 0.149992 294.418 0.205604 292.872 0.283065C291.326 0.360526 289.574 0.312462 288.979 0.176209C288.385 0.039957 287.266 0.0582291 286.493 0.21633C285.719 0.374827 285.087 0.356554 285.087 0.175414C285.087 -0.00572637 284.552 -0.0545859 283.898 0.0665714C282.221 0.376814 267.039 0.442756 265.096 0.148403C264.211 0.0141367 263.388 -0.00532822 263.268 0.104706ZM301.515 8.22265C301.519 8.37956 301.242 8.40935 300.9 8.28899C300.558 8.16863 300.391 7.80158 300.528 7.47346C300.731 6.98843 300.845 6.97612 301.143 7.40712C301.344 7.69869 301.511 8.06534 301.515 8.22265ZM218.517 7.63911C218.535 7.80277 218.615 8.25085 218.695 8.63419C218.775 9.01752 218.686 9.24355 218.498 9.13669C217.982 8.84393 217.642 7.34118 218.092 7.34118C218.308 7.34118 218.499 7.47545 218.517 7.63911ZM268.653 7.51636C268.653 7.61289 268.458 7.80198 268.22 7.93704C267.982 8.0721 267.788 7.99305 267.788 7.76185C267.788 7.53066 267.982 7.34118 268.22 7.34118C268.458 7.34118 268.653 7.41983 268.653 7.51636ZM251.569 8.93013C251.716 9.14861 251.63 9.32737 251.379 9.32737C251.127 9.32737 250.921 9.14861 250.921 8.93013C250.921 8.71165 251.006 8.53289 251.111 8.53289C251.216 8.53289 251.422 8.71165 251.569 8.93013ZM213.727 9.50255C213.727 9.59908 213.532 9.78816 213.294 9.92322C213.056 10.0583 212.862 9.97923 212.862 9.74804C212.862 9.51685 213.056 9.32737 213.294 9.32737C213.532 9.32737 213.727 9.40602 213.727 9.50255ZM216.204 9.5673C216.061 9.69918 215.688 9.71348 215.376 9.59868C215.031 9.47196 215.133 9.37782 215.637 9.35875C216.093 9.34167 216.348 9.43541 216.204 9.5673ZM217.835 9.7246C217.982 9.94308 217.788 10.1218 217.403 10.1218C217.018 10.1218 216.823 9.94308 216.97 9.7246C217.117 9.50612 217.312 9.32737 217.403 9.32737C217.494 9.32737 217.688 9.50612 217.835 9.7246ZM222.376 9.67813C222.376 9.87119 221.938 10.1306 221.403 10.2545C220.463 10.4718 220.459 10.4599 221.27 9.90336C222.249 9.23163 222.376 9.20542 222.376 9.67813ZM206.807 9.89979C206.807 9.99631 206.612 10.1854 206.374 10.3205C206.136 10.4555 205.942 10.3765 205.942 10.1453C205.942 9.91408 206.136 9.7246 206.374 9.7246C206.612 9.7246 206.807 9.80326 206.807 9.89979ZM186.795 10.3618C186.652 10.4937 186.278 10.508 185.967 10.3932C185.621 10.2664 185.724 10.1723 186.228 10.1532C186.684 10.1361 186.939 10.2299 186.795 10.3618ZM191.533 11.7855C191.395 12.1021 191.292 12.0079 191.271 11.5451C191.253 11.1265 191.355 10.8921 191.499 11.024C191.642 11.1559 191.658 11.4987 191.533 11.7855ZM343.473 11.9094C343.473 12.9089 342.793 12.8644 342.703 11.859C342.651 11.2905 342.796 10.9759 343.043 11.1165C343.28 11.2508 343.473 11.6075 343.473 11.9094ZM163.774 12.108C163.921 12.3265 163.835 12.5053 163.584 12.5053C163.332 12.5053 163.126 12.3265 163.126 12.108C163.126 11.8895 163.211 11.7108 163.316 11.7108C163.421 11.7108 163.627 11.8895 163.774 12.108ZM187.629 12.3269C187.762 12.6435 188.044 12.9025 188.256 12.9025C188.878 12.9025 188.7 12.2133 188.016 11.9722C187.597 11.8244 187.469 11.942 187.629 12.3269ZM356.413 12.3452C355.929 12.8799 355.955 13.0388 356.576 13.3577C357.613 13.8908 357.543 14.6329 356.504 14.122C356.06 13.9035 355.542 13.8527 355.354 14.0088C355.166 14.1649 355.141 13.9655 355.297 13.5651C355.454 13.1651 355.582 12.5839 355.582 12.2741C355.582 11.9642 355.898 11.7108 356.284 11.7108C356.878 11.7108 356.898 11.8085 356.413 12.3452ZM140.499 13.3744C140.361 13.691 140.259 13.5969 140.238 13.1341C140.219 12.7154 140.321 12.481 140.465 12.6129C140.609 12.7448 140.624 13.0876 140.499 13.3744ZM348.23 12.6804C348.23 12.777 348.036 12.9661 347.798 13.1011C347.56 13.2362 347.365 13.1571 347.365 12.9259C347.365 12.6947 347.56 12.5053 347.798 12.5053C348.036 12.5053 348.23 12.5839 348.23 12.6804ZM349.528 12.9025C349.528 13.121 349.333 13.2997 349.095 13.2997C348.857 13.2997 348.663 13.121 348.663 12.9025C348.663 12.684 348.857 12.5053 349.095 12.5053C349.333 12.5053 349.528 12.684 349.528 12.9025ZM139.339 13.697C139.339 14.1339 139.162 14.4915 138.947 14.4915C138.731 14.4915 138.657 14.1339 138.781 13.697C138.905 13.26 139.082 12.9025 139.173 12.9025C139.264 12.9025 139.339 13.26 139.339 13.697ZM141.934 13.697C141.934 13.9155 141.848 14.0942 141.743 14.0942C141.638 14.0942 141.432 13.9155 141.285 13.697C141.138 13.4785 141.224 13.2997 141.476 13.2997C141.727 13.2997 141.934 13.4785 141.934 13.697ZM137.904 14.5661C137.766 14.8827 137.664 14.7886 137.643 14.3258C137.624 13.9071 137.726 13.6727 137.87 13.8046C138.014 13.9365 138.029 14.2793 137.904 14.5661ZM362.07 15.8154C362.07 16.107 361.778 16.3454 361.421 16.3454C360.737 16.3454 360.578 15.9942 361.061 15.5509C361.538 15.1123 362.07 15.2518 362.07 15.8154ZM79.4216 21.6683C79.2646 21.9011 79.2291 22.1772 79.3424 22.2813C79.4557 22.3854 79.6638 22.1947 79.8048 21.8574C80.0971 21.1575 79.848 21.0344 79.4216 21.6683ZM36.9184 26.892C36.6083 27.1768 36.4068 27.2003 36.4068 26.9516C36.4068 26.7256 36.5365 26.4217 36.6953 26.2763C36.8536 26.1305 37.0841 26.1035 37.2069 26.2167C37.3297 26.3295 37.2 26.6334 36.9184 26.892ZM12.62 29.3394C12.62 29.4216 12.2796 29.7346 11.8631 30.0346C11.1772 30.5283 11.1621 30.5144 11.6997 29.8844C12.2649 29.2226 12.62 29.0125 12.62 29.3394ZM18.9884 31.1754C18.9166 32.0501 18.2423 32.2893 18.2423 31.4404C18.2423 30.9665 18.626 30.3809 18.9365 30.3809C19.0009 30.3809 19.0243 30.7385 18.9884 31.1754Z" fill="#00A2C3"/>
</svg>
